<svg width="27" height="34" viewBox="0 0 27 34" fill="none" xmlns="http://www.w3.org/2000/svg">
<path d="M11.8499 11.8343L11.2038 0.737774C11.1986 0.642833 11.2128 0.547829 11.2456 0.458564C11.2784 0.3693 11.329 0.28765 11.3943 0.218601C11.4597 0.149553 11.5385 0.0945558 11.6258 0.0569705C11.7131 0.0193851 11.8072 2.69489e-07 11.9023 0H15.5479C15.643 2.69489e-07 15.737 0.0193851 15.8244 0.0569705C15.9117 0.0945558 15.9905 0.149553 16.0558 0.218601C16.1212 0.28765 16.1718 0.3693 16.2046 0.458564C16.2373 0.547829 16.2515 0.642833 16.2463 0.737774L15.6003 11.8343H11.8499ZM22.263 13.9328H5.18714C3.9776 13.9342 2.818 14.4153 1.96273 15.2706C1.10746 16.1258 0.62637 17.2855 0.625 18.495V19.8988H26.8252V18.495C26.8238 17.2855 26.3427 16.1258 25.4874 15.2706C24.6322 14.4153 23.4726 13.9342 22.263 13.9328ZM0.625 34H5.19057V29.4959C5.19057 29.2176 5.30111 28.9508 5.49789 28.754C5.69467 28.5572 5.96155 28.4467 6.23983 28.4467C6.51812 28.4467 6.785 28.5572 6.98178 28.754C7.17855 28.9508 7.2891 29.2176 7.2891 29.4959V34H15.9114V26.1155C15.9114 25.8373 16.022 25.5704 16.2187 25.3736C16.4155 25.1768 16.6824 25.0663 16.9607 25.0663C17.239 25.0663 17.5058 25.1768 17.7026 25.3736C17.8994 25.5704 18.0099 25.8373 18.0099 26.1155V34H20.5473V30.1718C20.5473 29.8935 20.6579 29.6266 20.8547 29.4298C21.0514 29.2331 21.3183 29.1225 21.5966 29.1225C21.8749 29.1225 22.1418 29.2331 22.3386 29.4298C22.5353 29.6266 22.6459 29.8935 22.6459 30.1718V33.9999H26.8252V21.9973H0.625V34Z" fill="black"/>
</svg>
