<svg width="31" height="31" viewBox="0 0 31 31" fill="none" xmlns="http://www.w3.org/2000/svg">
<path d="M15.5 5.54284C15.9181 5.54284 16.2557 5.88043 16.2557 6.29861V15.5003C16.2557 15.7314 16.1523 15.9397 15.9881 16.0781L11.0215 20.8547C10.8755 20.9946 10.6855 21.0661 10.4969 21.0661C10.2992 21.0661 10.1 20.987 9.95097 20.8334C9.66205 20.5324 9.67117 20.0533 9.97226 19.7629L14.7426 15.1782V6.29888C14.7426 5.88223 15.0802 5.54312 15.4984 5.54312L15.5 5.54284ZM15.5 4.18336C9.2499 4.18336 4.18328 9.25037 4.18328 15.5C4.18328 21.7501 9.25029 26.8152 15.5 26.8152C21.7496 26.8152 26.8151 21.7497 26.8151 15.5C26.8151 9.24998 21.7496 4.18336 15.5 4.18336ZM15.5 2.66878C22.5847 2.66878 28.3298 8.41394 28.3298 15.5002C28.3298 22.5849 22.5847 28.33 15.5 28.33C8.4137 28.33 2.66855 22.5849 2.66855 15.5002C2.66855 8.41394 8.41215 2.67034 15.4984 2.67034H15.4999L15.5 2.66878ZM15.5 0H15.4984C6.93872 0 0 6.93872 0 15.5C0 24.0597 6.93872 31 15.5 31C24.0597 31 31 24.0597 31 15.5C31 6.93872 24.0597 0 15.5 0Z" fill="black"/>
</svg>
