<svg width="32" height="39" viewBox="0 0 32 39" fill="none" xmlns="http://www.w3.org/2000/svg">
<path d="M28.2897 6H25.7903V3.50064C25.7791 1.57128 24.2191 0.01128 22.2897 0H10.2897C8.36034 0.0112502 6.80034 1.57123 6.78906 3.50064V6H4.2897C2.36034 6.01125 0.800343 7.57123 0.789062 9.50064V11.4994C0.789062 12.8475 1.56906 14.0719 2.7897 14.64C3.25283 14.88 3.76847 15.0038 4.2897 15H28.2897C28.8109 15.0038 29.3266 14.88 29.7897 14.64C31.0103 14.0719 31.7903 12.8475 31.7903 11.4994V9.50064C31.7791 7.57128 30.2191 6.01128 28.2897 6ZM22.7903 6H9.78906V3.50064C9.78906 3.22314 10.0141 3 10.2897 3H22.2897C22.4228 3 22.5503 3.0525 22.6441 3.14625C22.7378 3.24 22.7903 3.3675 22.7903 3.50063L22.7903 6Z" fill="black"/>
<path d="M2.78906 35.4994C2.80031 37.4287 4.36029 38.9887 6.2897 39H26.2884C28.2178 38.9887 29.7778 37.4288 29.7891 35.4994V18H2.78906V35.4994ZM18.7884 22.5C18.7884 21.6712 19.4615 21 20.2884 21C21.1172 21 21.7884 21.6712 21.7884 22.5V34.5C21.7884 35.3288 21.1172 36 20.2884 36C19.4615 36 18.7884 35.3288 18.7884 34.5V22.5ZM10.7878 22.5H10.7897C10.7897 21.6712 11.4609 21 12.2897 21C13.1166 21 13.7897 21.6712 13.7897 22.5V34.5C13.7897 35.3288 13.1166 36 12.2897 36C11.4609 36 10.7897 35.3288 10.7897 34.5L10.7878 22.5Z" fill="black"/>
</svg>
