<svg version="1.1" xmlns="http://www.w3.org/2000/svg" xmlns:xlink="http://www.w3.org/1999/xlink" width="56.83447" height="56.34813" viewBox="0,0,56.83447,56.34813"><defs><radialGradient cx="249.06532" cy="175.57193" r="5.8391" gradientUnits="userSpaceOnUse" id="color-1"><stop offset="0" stop-color="#000000"></stop><stop offset="1" stop-color="#2b2b2b"></stop></radialGradient><radialGradient cx="248.8165" cy="174.13572" r="5.8391" gradientUnits="userSpaceOnUse" id="color-2"><stop offset="0" stop-color="#000000"></stop><stop offset="1" stop-color="#2b2b2b"></stop></radialGradient><radialGradient cx="249.49679" cy="175.07122" r="5.83911" gradientUnits="userSpaceOnUse" id="color-3"><stop offset="0" stop-color="#000000"></stop><stop offset="1" stop-color="#2b2b2b"></stop></radialGradient><radialGradient cx="248.28056" cy="174.26795" r="5.8391" gradientUnits="userSpaceOnUse" id="color-4"><stop offset="0" stop-color="#000000"></stop><stop offset="1" stop-color="#2b2b2b"></stop></radialGradient><radialGradient cx="249.882" cy="182.69686" r="5.8391" gradientUnits="userSpaceOnUse" id="color-5"><stop offset="0" stop-color="#000000"></stop><stop offset="1" stop-color="#2b2b2b"></stop></radialGradient><radialGradient cx="250.60027" cy="181.42855" r="5.8391" gradientUnits="userSpaceOnUse" id="color-6"><stop offset="0" stop-color="#000000"></stop><stop offset="1" stop-color="#2b2b2b"></stop></radialGradient><radialGradient cx="250.53311" cy="182.5833" r="5.8391" gradientUnits="userSpaceOnUse" id="color-7"><stop offset="0" stop-color="#000000"></stop><stop offset="1" stop-color="#2b2b2b"></stop></radialGradient><radialGradient cx="250.10202" cy="181.19094" r="5.8391" gradientUnits="userSpaceOnUse" id="color-8"><stop offset="0" stop-color="#000000"></stop><stop offset="1" stop-color="#2b2b2b"></stop></radialGradient><radialGradient cx="245.33512" cy="188.55398" r="5.83911" gradientUnits="userSpaceOnUse" id="color-9"><stop offset="0" stop-color="#000000"></stop><stop offset="1" stop-color="#2b2b2b"></stop></radialGradient><radialGradient cx="246.74337" cy="188.17802" r="5.8391" gradientUnits="userSpaceOnUse" id="color-10"><stop offset="0" stop-color="#000000"></stop><stop offset="1" stop-color="#2b2b2b"></stop></radialGradient><radialGradient cx="245.8723" cy="188.93905" r="5.83911" gradientUnits="userSpaceOnUse" id="color-11"><stop offset="0" stop-color="#000000"></stop><stop offset="1" stop-color="#2b2b2b"></stop></radialGradient><radialGradient cx="246.56387" cy="187.656" r="5.8391" gradientUnits="userSpaceOnUse" id="color-12"><stop offset="0" stop-color="#000000"></stop><stop offset="1" stop-color="#2b2b2b"></stop></radialGradient><radialGradient cx="238.46343" cy="189.92829" r="5.83911" gradientUnits="userSpaceOnUse" id="color-13"><stop offset="0" stop-color="#000000"></stop><stop offset="1" stop-color="#2b2b2b"></stop></radialGradient><radialGradient cx="239.84167" cy="190.40265" r="5.8391" gradientUnits="userSpaceOnUse" id="color-14"><stop offset="0" stop-color="#000000"></stop><stop offset="1" stop-color="#2b2b2b"></stop></radialGradient><radialGradient cx="238.6941" cy="190.54768" r="5.8391" gradientUnits="userSpaceOnUse" id="color-15"><stop offset="0" stop-color="#000000"></stop><stop offset="1" stop-color="#2b2b2b"></stop></radialGradient><radialGradient cx="239.9842" cy="189.86936" r="5.83911" gradientUnits="userSpaceOnUse" id="color-16"><stop offset="0" stop-color="#000000"></stop><stop offset="1" stop-color="#2b2b2b"></stop></radialGradient><radialGradient cx="232.03755" cy="186.70125" r="5.83911" gradientUnits="userSpaceOnUse" id="color-17"><stop offset="0" stop-color="#000000"></stop><stop offset="1" stop-color="#2b2b2b"></stop></radialGradient><radialGradient cx="232.81997" cy="187.93102" r="5.8391" gradientUnits="userSpaceOnUse" id="color-18"><stop offset="0" stop-color="#000000"></stop><stop offset="1" stop-color="#2b2b2b"></stop></radialGradient><radialGradient cx="231.83203" cy="187.32942" r="5.83911" gradientUnits="userSpaceOnUse" id="color-19"><stop offset="0" stop-color="#000000"></stop><stop offset="1" stop-color="#2b2b2b"></stop></radialGradient><radialGradient cx="233.26374" cy="187.6027" r="5.8391" gradientUnits="userSpaceOnUse" id="color-20"><stop offset="0" stop-color="#000000"></stop><stop offset="1" stop-color="#2b2b2b"></stop></radialGradient><radialGradient cx="229.57634" cy="180.58905" r="5.83911" gradientUnits="userSpaceOnUse" id="color-21"><stop offset="0" stop-color="#000000"></stop><stop offset="1" stop-color="#2b2b2b"></stop></radialGradient><radialGradient cx="229.34542" cy="182.02824" r="5.8391" gradientUnits="userSpaceOnUse" id="color-22"><stop offset="0" stop-color="#000000"></stop><stop offset="1" stop-color="#2b2b2b"></stop></radialGradient><radialGradient cx="229.00569" cy="180.92255" r="5.83911" gradientUnits="userSpaceOnUse" id="color-23"><stop offset="0" stop-color="#000000"></stop><stop offset="1" stop-color="#2b2b2b"></stop></radialGradient><radialGradient cx="229.89524" cy="182.07717" r="5.8391" gradientUnits="userSpaceOnUse" id="color-24"><stop offset="0" stop-color="#000000"></stop><stop offset="1" stop-color="#2b2b2b"></stop></radialGradient><radialGradient cx="231.20626" cy="173.60227" r="5.8391" gradientUnits="userSpaceOnUse" id="color-25"><stop offset="0" stop-color="#000000"></stop><stop offset="1" stop-color="#2b2b2b"></stop></radialGradient><radialGradient cx="230.12793" cy="174.58297" r="5.8391" gradientUnits="userSpaceOnUse" id="color-26"><stop offset="0" stop-color="#000000"></stop><stop offset="1" stop-color="#2b2b2b"></stop></radialGradient><radialGradient cx="230.55222" cy="173.50688" r="5.8391" gradientUnits="userSpaceOnUse" id="color-27"><stop offset="0" stop-color="#000000"></stop><stop offset="1" stop-color="#2b2b2b"></stop></radialGradient><radialGradient cx="230.5271" cy="174.96425" r="5.83911" gradientUnits="userSpaceOnUse" id="color-28"><stop offset="0" stop-color="#000000"></stop><stop offset="1" stop-color="#2b2b2b"></stop></radialGradient><radialGradient cx="237.39837" cy="169.74453" r="5.83909" gradientUnits="userSpaceOnUse" id="color-29"><stop offset="0" stop-color="#000000"></stop><stop offset="1" stop-color="#2b2b2b"></stop></radialGradient><radialGradient cx="235.94118" cy="169.71107" r="5.83911" gradientUnits="userSpaceOnUse" id="color-30"><stop offset="0" stop-color="#000000"></stop><stop offset="1" stop-color="#2b2b2b"></stop></radialGradient><radialGradient cx="236.99053" cy="169.22442" r="5.83911" gradientUnits="userSpaceOnUse" id="color-31"><stop offset="0" stop-color="#000000"></stop><stop offset="1" stop-color="#2b2b2b"></stop></radialGradient><radialGradient cx="235.9673" cy="170.26242" r="5.8391" gradientUnits="userSpaceOnUse" id="color-32"><stop offset="0" stop-color="#000000"></stop><stop offset="1" stop-color="#2b2b2b"></stop></radialGradient><radialGradient cx="244.47893" cy="170.85225" r="5.8391" gradientUnits="userSpaceOnUse" id="color-33"><stop offset="0" stop-color="#000000"></stop><stop offset="1" stop-color="#2b2b2b"></stop></radialGradient><radialGradient cx="243.31117" cy="169.98" r="5.83911" gradientUnits="userSpaceOnUse" id="color-34"><stop offset="0" stop-color="#000000"></stop><stop offset="1" stop-color="#2b2b2b"></stop></radialGradient><radialGradient cx="244.44827" cy="170.19204" r="5.8391" gradientUnits="userSpaceOnUse" id="color-35"><stop offset="0" stop-color="#000000"></stop><stop offset="1" stop-color="#2b2b2b"></stop></radialGradient><radialGradient cx="243.0127" cy="170.44435" r="5.8391" gradientUnits="userSpaceOnUse" id="color-36"><stop offset="0" stop-color="#000000"></stop><stop offset="1" stop-color="#2b2b2b"></stop></radialGradient><radialGradient cx="240" cy="180" r="6.5" gradientUnits="userSpaceOnUse" id="color-37"><stop offset="0" stop-color="#929292"></stop><stop offset="1" stop-color="#8a8a8a"></stop></radialGradient><radialGradient cx="240" cy="180" r="6.5" gradientUnits="userSpaceOnUse" id="color-38"><stop offset="0" stop-color="#000000"></stop><stop offset="1" stop-color="#2b2b2b"></stop></radialGradient><radialGradient cx="240" cy="180" r="19.95833" gradientUnits="userSpaceOnUse" id="color-39"><stop offset="0" stop-color="#111111"></stop><stop offset="1" stop-color="#878787"></stop></radialGradient></defs><g transform="translate(-211.63748,-151.81585)"><g data-paper-data="{&quot;isPaintingLayer&quot;:true}" fill-rule="nonzero" stroke-linejoin="miter" stroke-miterlimit="10" stroke-dasharray="" stroke-dashoffset="0" style="mix-blend-mode: normal"><g><g fill="none" stroke-width="0.5" stroke-linecap="round"><g><path d="M257.21072,176.01746l-14.24081,-0.68336" stroke="url(#color-1)"></path><path d="M242.79266,175.09699l14.09863,-2.12045" stroke="url(#color-2)"></path><path d="M255.40467,169.44601l-10.25928,9.90025" stroke="url(#color-3)"></path><path d="M252.97161,167.5941l-8.12037,11.71867" stroke="url(#color-4)"></path></g><g><path d="M245.31946,178.64792l10.57853,9.55838" stroke="url(#color-5)"></path><path d="M245.33277,178.35217l12.24646,7.30016" stroke="url(#color-6)"></path><path d="M258.66834,181.97968l-14.21075,1.15015" stroke="url(#color-7)"></path><path d="M244.25138,182.9174l13.70985,-3.91252" stroke="url(#color-8)"></path></g><g><path d="M245.61816,196.70665l-0.59008,-14.24498" stroke="url(#color-9)"></path><path d="M248.61847,196.11714l-3.37,-13.85321" stroke="url(#color-10)"></path><path d="M252.00224,194.32144l-10.7762,-9.33496" stroke="url(#color-11)"></path><path d="M241.23316,184.69051l12.39651,7.04233" stroke="url(#color-12)"></path></g><g><path d="M241.61015,184.70252l-7.4637,12.14747" stroke="url(#color-13)"></path><path d="M236.96472,198.03608l4.93866,-13.37452" stroke="url(#color-14)"></path><path d="M240.77457,198.43553l-3.72833,-13.76109" stroke="url(#color-15)"></path><path d="M243.57,197.19657l-6.3526,-12.76371" stroke="url(#color-16)"></path></g><g><path d="M237.75493,184.57469l-13.40677,4.8504" stroke="url(#color-17)"></path><path d="M225.8134,192.10881l12.1964,-7.38349" stroke="url(#color-18)"></path><path d="M234.2028,181.70892l-5.65846,13.08623" stroke="url(#color-19)"></path><path d="M231.50276,195.56797l2.98443,-13.94134" stroke="url(#color-20)"></path></g><g><path d="M235.26437,182.7929l-13.24756,-5.26976" stroke="url(#color-21)"></path><path d="M235.35503,183.07476l-14.02337,-2.57166" stroke="url(#color-22)"></path><path d="M221.59156,184.32501l12.91775,-6.03321" stroke="url(#color-23)"></path><path d="M223.29158,186.86653l11.48508,-8.44753" stroke="url(#color-24)"></path></g><g><path d="M234.2767,178.87321l-7.06573,-12.38319" stroke="url(#color-25)"></path><path d="M224.81643,168.39152l9.3553,10.75856" stroke="url(#color-26)"></path><path d="M236.49471,174.8844l-13.85953,-3.34384" stroke="url(#color-27)"></path><path d="M222.37821,174.58744l14.24608,0.56317" stroke="url(#color-28)"></path></g><g><path d="M239.40994,161.83885l-3.42307,13.84018" stroke="url(#color-29)"></path><path d="M236.36459,161.56447l-0.64466,14.24262" stroke="url(#color-30)"></path><path d="M232.61333,162.34066l7.73054,11.97942" stroke="url(#color-31)"></path><path d="M240.25414,174.60222l-9.9281,-10.23234" stroke="url(#color-32)"></path></g><g><path d="M239.88759,174.86851l10.81461,-9.29042" stroke="url(#color-33)"></path><path d="M239.59586,174.81805l8.78444,-11.22949" stroke="url(#color-34)"></path><path d="M244.22525,176.28802l0.64881,-14.24243" stroke="url(#color-35)"></path><path d="M241.83391,162.37235l2.15463,14.09346" stroke="url(#color-36)"></path></g></g><path d="M233.5,180c0,-3.58985 2.91015,-6.5 6.5,-6.5c3.58985,0 6.5,2.91015 6.5,6.5c0,3.58985 -2.91015,6.5 -6.5,6.5c-3.58985,0 -6.5,-2.91015 -6.5,-6.5z" fill="url(#color-37)" stroke="url(#color-38)" stroke-width="0.5" stroke-linecap="butt"></path><path d="M220.04167,180c0,-11.02268 8.93565,-19.95833 19.95833,-19.95833c11.02268,0 19.95833,8.93565 19.95833,19.95833c0,11.02268 -8.93565,19.95833 -19.95833,19.95833c-11.02268,0 -19.95833,-8.93565 -19.95833,-19.95833z" fill="none" stroke="url(#color-39)" stroke-width="4.5" stroke-linecap="butt"></path><path d="M212.83958,180.14357c0,-14.9084 12.08565,-26.99405 26.99405,-26.99405c14.9084,0 26.99404,12.08565 26.99404,26.99405c0,14.9084 -12.08563,26.99405 -26.99404,26.99405c-14.9084,0 -26.99405,-12.08564 -26.99405,-26.99404z" fill="none" stroke="#000000" stroke-width="0.5" stroke-linecap="butt"></path><path d="M216.20268,180.14357c0,-13.05102 10.57994,-23.63095 23.63096,-23.63095c13.05102,0 23.63095,10.57993 23.63095,23.63095c0,13.05102 -10.57993,23.63096 -23.63095,23.63096c-13.05102,0 -23.63095,-10.57994 -23.63095,-23.63095z" fill="none" stroke="#212122" stroke-width="6.5" stroke-linecap="butt"></path><g stroke-linecap="butt"><g><g><g><path d="M237.265,153.42997c-0.39887,0.00258 0.4432,-0.20953 0.57637,-0.43629c0.23745,-0.4043 0.24002,-0.94508 0.33289,-1.0324c0.17219,-0.16189 1.28109,-0.14608 1.40518,-0.04754c0.1456,0.11563 0.17435,0.71202 0.29129,1.0608c0.09144,0.27276 0.46358,0.2963 0.2898,0.32667c-0.17378,0.03037 -2.60027,0.12685 -2.89553,0.12876z" fill="#424345" stroke="#000000" stroke-width="0.25"></path><path d="M238.22147,180.00883l-0.23266,-26.61967l2.48266,-0.0217l0.23266,26.61968z" fill="none" stroke="none" stroke-width="0"></path><path d="M242.37819,206.57056c0.39887,-0.00245 -0.44326,0.20938 -0.5765,0.43611c-0.23757,0.40423 -0.24033,0.94502 -0.33322,1.03231c-0.17224,0.16183 -1.28114,0.14568 -1.40519,0.04709c-0.14557,-0.11568 -0.17413,-0.71207 -0.29096,-1.06089c-0.09136,-0.2728 -0.46349,-0.29645 -0.2897,-0.32676c0.17379,-0.03032 2.60031,-0.12603 2.89558,-0.12785z" fill="#424345" stroke="#000000" stroke-width="0.25"></path><path d="M241.43003,179.9914l0.22434,26.61974l-2.48267,0.02093l-0.22434,-26.61975z" fill="none" stroke="none" stroke-width="0"></path></g><g><path d="M213.25243,182.56577c0.00272,0.39886 -0.20968,-0.44312 -0.43648,-0.57621c-0.40439,-0.2373 -0.94518,-0.2397 -1.03253,-0.33254c-0.16195,-0.17213 -0.14652,-1.28104 -0.04802,-1.40516c0.11558,-0.14564 0.71195,-0.1746 1.0607,-0.29165c0.27274,-0.09153 0.29614,-0.46368 0.32657,-0.28992c0.03044,0.17377 0.12774,2.60022 0.12975,2.89549z" fill="#424345" stroke="#000000" stroke-width="0.25"></path><path d="M239.83097,181.60012l-26.61959,0.24186l-0.02256,-2.48266l26.6196,-0.24186z" fill="none" stroke="none" stroke-width="0"></path><path d="M266.39125,177.43422c-0.0026,-0.39887 0.20954,0.44319 0.43631,0.57635c0.40431,0.23743 0.94511,0.23999 1.03242,0.33286c0.1619,0.17219 0.14612,1.28109 0.04758,1.40518c-0.11563,0.1456 -0.71201,0.17438 -1.06079,0.29133c-0.27277,0.09145 -0.29629,0.46358 -0.32667,0.28981c-0.03038,-0.17378 -0.12694,-2.60026 -0.12885,-2.89553z" fill="#424345" stroke="#000000" stroke-width="0.25"></path><path d="M239.81242,178.39157l26.61966,-0.23354l0.02178,2.48266l-26.61967,0.23354z" fill="none" stroke="none" stroke-width="0"></path></g></g><g><g><path d="M220.05638,162.06012c-0.29339,0.27023 0.18698,-0.45317 0.13298,-0.71054c-0.09628,-0.45888 -0.45816,-0.86075 -0.44818,-0.98784c0.01851,-0.23562 0.84964,-0.96987 1.00774,-0.98042c0.18552,-0.01238 0.60798,0.40954 0.92912,0.58895c0.25115,0.14031 0.54233,-0.09261 0.43418,0.04676c-0.10815,0.13938 -1.83866,1.84304 -2.05585,2.04308z" fill="#424345" stroke="#000000" stroke-width="0.25"></path><path d="M238.64356,181.08293l-18.07907,-19.53992l1.82237,-1.68613l18.07908,19.53991z" fill="none" stroke="none" stroke-width="0"></path><path d="M259.58715,197.94027c0.29347,-0.27013 -0.18712,0.45311 -0.1332,0.7105c0.09614,0.45891 0.45789,0.8609 0.44787,0.98798c-0.01857,0.23561 -0.84994,0.96961 -1.00805,0.98012c-0.18552,0.01233 -0.60785,-0.40974 -0.92894,-0.58925c-0.25111,-0.14039 -0.54236,0.09244 -0.43417,-0.0469c0.1082,-0.13934 1.83924,-1.84247 2.05649,-2.04244z" fill="#424345" stroke="#000000" stroke-width="0.25"></path><path d="M241.00591,178.91165l18.07296,19.54556l-1.8229,1.68557l-18.07297,-19.54557z" fill="none" stroke="none" stroke-width="0"></path></g><g><path d="M221.88852,199.77141c0.27033,0.2933 -0.45324,-0.18683 -0.71059,-0.13273c-0.45885,0.09644 -0.8606,0.45846 -0.98768,0.44852c-0.23562,-0.01842 -0.97016,-0.8493 -0.98077,-1.0074c-0.01245,-0.18552 0.40933,-0.60812 0.58864,-0.92933c0.14022,-0.2512 -0.09281,-0.5423 0.04661,-0.4342c0.13942,0.1081 1.84368,1.83802 2.0438,2.05514z" fill="#424345" stroke="#000000" stroke-width="0.25"></path><path d="M240.90492,181.17765l-19.53366,18.08583l-1.68677,-1.82179l19.53367,-18.08583z" fill="none" stroke="none" stroke-width="0"></path><path d="M257.75502,160.22824c-0.27024,-0.29338 0.45317,0.18697 0.71054,0.13296c0.45888,-0.0963 0.86075,-0.45819 0.98783,-0.44822c0.23562,0.0185 0.9699,0.84961 0.98046,1.00772c0.01239,0.18552 -0.40952,0.608 -0.58893,0.92915c-0.14031,0.25116 0.09263,0.54232 -0.04675,0.43418c-0.13938,-0.10815 -1.84311,-1.8386 -2.04315,-2.05578z" fill="#424345" stroke="#000000" stroke-width="0.25"></path><path d="M238.73281,178.81605l19.53932,-18.07971l1.68619,1.82232l-19.53932,18.07972z" fill="none" stroke="none" stroke-width="0"></path></g></g></g><g><g><g><path d="M227.69891,156.21884c-0.37013,0.14868 0.33548,-0.35747 0.37621,-0.61727c0.07262,-0.46321 -0.1233,-0.96726 -0.06892,-1.08255c0.10082,-0.21376 1.13826,-0.60573 1.28984,-0.55956c0.17786,0.05417 0.42333,0.59847 0.66003,0.88007c0.1851,0.22022 0.53994,0.10564 0.38941,0.19763c-0.15053,0.09199 -2.37257,1.07162 -2.64657,1.18169z" fill="#424345" stroke="#000000" stroke-width="0.25"></path><path d="M238.33619,180.59504l-9.97887,-24.67961l2.30173,-0.93067l9.97887,24.67961z" fill="none" stroke="none" stroke-width="0"></path><path d="M251.94446,203.78164c0.37017,-0.14856 -0.33558,0.35735 -0.3764,0.61715c-0.07277,0.46319 0.12299,0.96731 0.06858,1.08259c-0.10089,0.21373 -1.13845,0.60537 -1.29002,0.55915c-0.17784,-0.05423 -0.42314,-0.5986 -0.65975,-0.88027c-0.18504,-0.22028 -0.53992,-0.10581 -0.38935,-0.19776c0.15056,-0.09195 2.37291,-1.07088 2.64694,-1.18086z" fill="#424345" stroke="#000000" stroke-width="0.25"></path><path d="M241.3148,179.40212l9.97116,24.68273l-2.30202,0.92996l-9.97116,-24.68273z" fill="none" stroke="none" stroke-width="0"></path></g><g><path d="M216.04461,192.13089c0.14881,0.37007 -0.35757,-0.33535 -0.61739,-0.37599c-0.46325,-0.07246 -0.96722,0.12363 -1.08254,0.06929c-0.2138,-0.10075 -0.60612,-1.13805 -0.56,-1.28964c0.05411,-0.17788 0.59831,-0.42354 0.87983,-0.66034c0.22017,-0.18518 0.10546,-0.53998 0.1975,-0.38948c0.09204,0.1505 1.07244,2.3722 1.18259,2.64616z" fill="#424345" stroke="#000000" stroke-width="0.25"></path><path d="M240.41714,181.48519l-24.67616,9.9874l-0.93147,-2.3014l24.67616,-9.9874z" fill="none" stroke="none" stroke-width="0"></path><path d="M263.59904,167.86891c-0.14869,-0.37012 0.35748,0.33546 0.61728,0.37618c0.46322,0.07261 0.96727,-0.12333 1.08257,-0.06895c0.21376,0.10082 0.60576,1.13825 0.55959,1.28983c-0.05417,0.17786 -0.59845,0.42335 -0.88004,0.66006c-0.22022,0.18511 -0.10563,0.53995 -0.19762,0.38942c-0.09199,-0.15053 -1.0717,-2.37253 -1.18178,-2.64653z" fill="#424345" stroke="#000000" stroke-width="0.25"></path><path d="M239.22319,178.50699l24.67928,-9.97968l0.93075,2.30169l-24.67928,9.97969z" fill="none" stroke="none" stroke-width="0"></path></g></g><g><g><path d="M214.85431,170.55871c-0.17385,0.35899 0.00776,-0.49016 -0.13687,-0.7098c-0.25787,-0.39159 -0.74191,-0.63275 -0.77923,-0.75464c-0.0692,-0.22599 0.43475,-1.21389 0.57797,-1.28169c0.16805,-0.07956 0.71581,0.15803 1.08038,0.20717c0.28511,0.03843 0.47058,-0.28505 0.42109,-0.11572c-0.0495,0.16932 -1.03464,2.38893 -1.16333,2.65469z" fill="#424345" stroke="#000000" stroke-width="0.25"></path><path d="M239.12279,181.4395l-23.98541,-11.5482l1.07703,-2.23698l23.98542,11.54819z" fill="none" stroke="none" stroke-width="0"></path><path d="M264.78934,189.44151c0.17396,-0.35894 -0.00791,0.49016 0.13665,0.70984c0.25774,0.39167 0.7417,0.63299 0.77899,0.7549c0.06912,0.226 -0.43512,1.21375 -0.57836,1.28151c-0.16808,0.07951 -0.71577,-0.15827 -1.08032,-0.20752c-0.2851,-0.03852 -0.47067,0.2849 -0.42111,0.11559c0.04955,-0.16931 1.03539,-2.38861 1.16417,-2.65432z" fill="#424345" stroke="#000000" stroke-width="0.25"></path><path d="M240.52425,178.55314l23.9818,11.55569l-1.07773,2.23665l-23.98181,-11.5557z" fill="none" stroke="none" stroke-width="0"></path></g><g><path d="M230.38892,204.97054c0.35905,0.17372 -0.49017,-0.00759 -0.70975,0.13711c-0.39151,0.258 -0.63251,0.74213 -0.75438,0.77949c-0.22597,0.06928 -1.21404,-0.43433 -1.28189,-0.57753c-0.07962,-0.16803 0.15779,-0.71587 0.20681,-1.08046c0.03833,-0.28512 -0.28522,-0.47048 -0.11587,-0.42104c0.16934,0.04944 2.38929,1.03381 2.65509,1.16242z" fill="#424345" stroke="#000000" stroke-width="0.25"></path><path d="M241.26132,180.6983l-11.53991,23.98941l-2.23735,-1.07626l11.5399,-23.98941z" fill="none" stroke="none" stroke-width="0"></path><path d="M249.25447,155.029c-0.359,-0.17383 0.49016,0.00775 0.70979,-0.13689c0.39159,-0.25788 0.63273,-0.74193 0.75462,-0.77926c0.22599,-0.06921 1.21391,0.43472 1.28171,0.57793c0.07957,0.16805 -0.15801,0.71583 -0.20714,1.0804c-0.03842,0.28511 0.28507,0.47056 0.11574,0.42106c-0.16933,-0.0495 -2.38896,-1.03455 -2.65472,-1.16324z" fill="#424345" stroke="#000000" stroke-width="0.25"></path><path d="M238.37447,179.29784l11.54742,-23.9858l2.23701,1.07696l-11.54741,23.98581z" fill="none" stroke="none" stroke-width="0"></path></g></g></g><g><g><g><path d="M232.4281,154.35162c-0.3916,0.0758 0.39717,-0.28736 0.48642,-0.53473c0.15914,-0.44104 0.06234,-0.9731 0.1376,-1.07599c0.13952,-0.19076 1.23246,-0.3789 1.37254,-0.30483c0.16436,0.08692 0.30217,0.66788 0.48118,0.98925c0.13998,0.25133 0.51012,0.2061 0.34488,0.26788c-0.16524,0.06178 -2.53272,0.60231 -2.82262,0.65842z" fill="#424345" stroke="#000000" stroke-width="0.25"></path><path d="M238.25031,180.30259l-5.11821,-26.12402l2.43644,-0.47735l5.11821,26.12403z" fill="none" stroke="none" stroke-width="0"></path><path d="M247.21517,205.64889c0.39163,-0.07567 -0.39725,0.28724 -0.48659,0.53458c-0.15928,0.44099 -0.06265,0.97308 -0.13794,1.07595c-0.13959,0.19072 -1.23259,0.37851 -1.37264,0.30439c-0.16433,-0.08697 -0.30196,-0.66798 -0.48087,-0.9894c-0.13992,-0.25137 -0.51006,-0.20627 -0.34479,-0.26799c0.16527,-0.06172 2.53292,-0.60151 2.82283,-0.65754z" fill="#424345" stroke="#000000" stroke-width="0.25"></path><path d="M241.40108,179.6961l5.11004,26.12563l-2.43658,0.47659l-5.11005,-26.12563z" fill="none" stroke="none" stroke-width="0"></path></g><g><path d="M214.17576,187.40234c0.07593,0.39157 -0.2875,-0.39707 -0.5349,-0.48624c-0.4411,-0.15899 -0.97312,-0.06201 -1.07604,-0.13723c-0.19081,-0.13946 -0.37933,-1.23233 -0.30531,-1.37243c0.08686,-0.16439 0.66777,-0.30241 0.98908,-0.48153c0.25128,-0.14007 0.20593,-0.51019 0.26777,-0.34497c0.06184,0.16522 0.60318,2.53252 0.65939,2.82239z" fill="#424345" stroke="#000000" stroke-width="0.25"></path><path d="M240.12472,181.57117l-26.12226,5.12724l-0.47819,-2.43627l26.12227,-5.12724z" fill="none" stroke="none" stroke-width="0"></path><path d="M265.4679,172.59755c-0.07581,-0.3916 0.28738,0.39717 0.53475,0.48641c0.44104,0.15912 0.97311,0.06231 1.076,0.13756c0.19077,0.13952 0.37894,1.23245 0.30487,1.37253c-0.08691,0.16437 -0.66786,0.30219 -0.98923,0.48121c-0.25133,0.13999 -0.20609,0.51012 -0.26788,0.34488c-0.06178,-0.16524 -0.60239,-2.5327 -0.65851,-2.8226z" fill="#424345" stroke="#000000" stroke-width="0.25"></path><path d="M239.51714,178.42061l26.12386,-5.11908l0.47743,2.43642l-26.12387,5.11908z" fill="none" stroke="none" stroke-width="0"></path></g></g><g><g><path d="M217.09746,165.99582c-0.23877,0.31951 0.10056,-0.4798 0.0002,-0.72287c-0.17893,-0.43338 -0.60846,-0.76196 -0.622,-0.88871c-0.02509,-0.23501 0.65704,-1.10943 0.81051,-1.14884c0.18009,-0.04625 0.67286,0.29089 1.0215,0.40827c0.27265,0.09179 0.5161,-0.19065 0.43538,-0.03378c-0.08071,0.15687 -1.46885,2.14941 -1.6456,2.38594z" fill="#424345" stroke="#000000" stroke-width="0.25"></path><path d="M238.86252,181.28088l-21.36057,-15.8867l1.48166,-1.99218l21.36058,15.88669z" fill="none" stroke="none" stroke-width="0"></path><path d="M262.54613,194.00449c0.23886,-0.31944 -0.10071,0.47976 -0.00042,0.72287c0.1788,0.43345 0.60822,0.76215 0.62172,0.8889c0.02502,0.23502 -0.65738,1.10923 -0.81087,1.1486c-0.18011,0.0462 -0.67277,-0.29111 -1.02137,-0.4086c-0.27262,-0.09188 -0.51616,0.19049 -0.43539,0.03365c0.08076,-0.15685 1.46952,-2.14895 1.64634,-2.38542z" fill="#424345" stroke="#000000" stroke-width="0.25"></path><path d="M240.78585,178.71262l21.3556,15.89337l-1.48228,1.99172l-21.35562,-15.89337z" fill="none" stroke="none" stroke-width="0"></path></g><g><path d="M225.82525,202.72896c0.3196,0.23865 -0.47984,-0.1004 -0.72288,0.00005c-0.43333,0.17908 -0.76174,0.60874 -0.88849,0.62231c-0.235,0.02517 -1.10966,-0.65665 -1.14913,-0.81011c-0.04631,-0.18007 0.29067,-0.67296 0.40793,-1.02164c0.0917,-0.27268 -0.19084,-0.51603 -0.03394,-0.43538c0.1569,0.08066 2.14992,1.4681 2.38651,1.64478z" fill="#424345" stroke="#000000" stroke-width="0.25"></path><path d="M241.10279,180.95863l-15.87931,21.36606l-1.99269,-1.48097l15.87931,-21.36606z" fill="none" stroke="none" stroke-width="0"></path><path d="M253.81822,157.27062c-0.31952,-0.23875 0.4798,0.10055 0.72287,0.00018c0.43338,-0.17895 0.76194,-0.6085 0.88869,-0.62204c0.23501,-0.0251 1.10945,0.65701 1.14887,0.81048c0.04625,0.18009 -0.29087,0.67288 -0.40824,1.02151c-0.09178,0.27265 0.19067,0.51608 0.0338,0.43537c-0.15687,-0.0807 -2.14945,-1.46877 -2.38599,-1.64551z" fill="#424345" stroke="#000000" stroke-width="0.25"></path><path d="M238.53387,179.03618l15.886,-21.3611l1.99222,1.48159l-15.88599,21.3611z" fill="none" stroke="none" stroke-width="0"></path></g></g></g><g><g><g><path d="M223.53703,158.85014c-0.33652,0.21413 0.26411,-0.413 0.25643,-0.67587c-0.0137,-0.46867 -0.29886,-0.92816 -0.26659,-1.05148c0.05984,-0.22864 1.00763,-0.80449 1.16511,-0.78695c0.18479,0.02059 0.52606,0.51053 0.81045,0.74385c0.2224,0.18248 0.55015,0.00467 0.41908,0.12274c-0.13107,0.11808 -2.13538,1.48918 -2.38449,1.64771z" fill="#424345" stroke="#000000" stroke-width="0.25"></path><path d="M238.47076,180.85775l-14.34225,-22.42679l2.09162,-1.33762l14.34225,22.42679z" fill="none" stroke="none" stroke-width="0"></path><path d="M256.10642,201.15029c0.33659,-0.21402 -0.26423,0.41291 -0.25663,0.67578c0.01355,0.46867 0.29857,0.92826 0.26626,1.05158c-0.05992,0.22862 -1.00789,0.80417 -1.16536,0.78658c-0.18478,-0.02064 -0.52589,-0.51069 -0.81021,-0.74411c-0.22235,-0.18255 -0.55016,-0.00484 -0.41905,-0.12287c0.13111,-0.11803 2.13583,-1.48852 2.385,-1.64696z" fill="#424345" stroke="#000000" stroke-width="0.25"></path><path d="M241.17958,179.13802l14.33523,22.43128l-2.09203,1.33696l-14.33524,-22.43127z" fill="none" stroke="none" stroke-width="0"></path></g><g><path d="M218.67735,196.29186c0.21425,0.33644 -0.41309,-0.26396 -0.67595,-0.25619c-0.46867,0.01386 -0.92806,0.29918 -1.0514,0.26695c-0.22867,-0.05976 -0.80485,-1.00735 -0.78735,-1.16483c0.02052,-0.1848 0.51034,-0.52624 0.74357,-0.81071c0.1824,-0.22247 0.00448,-0.55016 0.1226,-0.41913c0.11812,0.13103 1.48992,2.13485 1.64853,2.38392z" fill="#424345" stroke="#000000" stroke-width="0.25"></path><path d="M240.6798,181.35053l-22.42183,14.35l-1.33835,-2.09115l22.42183,-14.35z" fill="none" stroke="none" stroke-width="0"></path><path d="M260.96625,163.70786c-0.21415,-0.33651 0.41301,0.26409 0.67587,0.25641c0.46867,-0.01371 0.92816,-0.2989 1.05148,-0.26663c0.22864,0.05983 0.80452,1.00762 0.78698,1.1651c-0.02058,0.18479 -0.51051,0.52607 -0.74383,0.81047c-0.18247,0.22241 -0.00465,0.55016 -0.12273,0.41909c-0.11808,-0.13107 -1.48925,-2.13532 -1.64778,-2.38443z" fill="#424345" stroke="#000000" stroke-width="0.25"></path><path d="M238.95913,178.6423l22.42632,-14.34298l1.33769,2.09157l-22.42632,14.34299z" fill="none" stroke="none" stroke-width="0"></path></g></g><g><g><path d="M213.54492,175.30534c-0.10494,0.38482 -0.0824,-0.48326 -0.26492,-0.67259c-0.3254,-0.33757 -0.84551,-0.48571 -0.90458,-0.59867c-0.10953,-0.20944 0.20439,-1.27309 0.33272,-1.36605c0.15058,-0.10907 0.73265,0.02387 1.10004,0.00521c0.28732,-0.0146 0.41022,-0.36664 0.39266,-0.1911c-0.01755,0.17553 -0.57824,2.53833 -0.65592,2.8232z" fill="#424345" stroke="#000000" stroke-width="0.25"></path><path d="M239.39909,181.54336l-25.6985,-6.94608l0.64781,-2.39675l25.69851,6.94607z" fill="none" stroke="none" stroke-width="0"></path><path d="M266.09875,184.69479c0.10507,-0.38478 0.08226,0.48327 0.26471,0.67266c0.3253,0.33767 0.84535,0.48599 0.90439,0.59897c0.10946,0.20946 -0.20478,1.27303 -0.33313,1.36594c-0.15061,0.10903 -0.73266,-0.0241 -1.10005,-0.00555c-0.28732,0.0145 -0.41033,0.36651 -0.39272,0.19098c0.01761,-0.17553 0.57903,-2.53815 0.65681,-2.823z" fill="#424345" stroke="#000000" stroke-width="0.25"></path><path d="M240.24654,178.44869l25.69633,6.9541l-0.64856,2.39656l-25.69634,-6.9541z" fill="none" stroke="none" stroke-width="0"></path></g><g><path d="M235.136,206.27829c0.38485,0.10482 -0.48322,0.08257 -0.67249,0.26515c-0.33746,0.32552 -0.48542,0.84568 -0.59837,0.90479c-0.2094,0.1096 -1.27316,-0.20395 -1.36616,-0.33224c-0.10913,-0.15054 0.02362,-0.73267 0.00483,-1.10006c-0.01469,-0.28732 -0.36679,-0.41009 -0.19124,-0.39259c0.17554,0.01749 2.53853,0.57736 2.82343,0.65495z" fill="#424345" stroke="#000000" stroke-width="0.25"></path><path d="M241.36509,180.42196l-6.93718,25.7009l-2.39697,-0.64699l6.93719,-25.70091z" fill="none" stroke="none" stroke-width="0"></path><path d="M244.5073,153.72121c-0.38482,-0.10494 0.48324,-0.08241 0.67257,-0.26494c0.33756,-0.32542 0.48569,-0.84553 0.59865,-0.90461c0.20943,-0.10953 1.27311,0.20434 1.36606,0.33267c0.10908,0.15058 -0.02384,0.73268 -0.00517,1.10007c0.0146,0.28732 0.36665,0.41019 0.19111,0.39264c-0.17554,-0.01755 -2.53835,-0.57814 -2.82322,-0.65583z" fill="#424345" stroke="#000000" stroke-width="0.25"></path><path d="M238.27012,179.57559l6.94524,-25.69874l2.39677,0.64774l-6.94522,25.69875z" fill="none" stroke="none" stroke-width="0"></path></g></g></g></g><g><g><g><g><g stroke="#000000"><path d="M238.23479,154.56096c0,0 -0.10395,-0.40977 -0.16631,-0.59867c-0.07476,-0.22645 -0.14655,-0.74684 -0.14655,-0.74684l1.29993,-0.01413c0,0 0.04725,0.53692 0.00885,0.76944c-0.03396,0.20566 -0.096,0.55503 -0.096,0.55503z" fill="#424345" stroke-width="0.25" stroke-linecap="butt"></path><path d="M237.90991,153.11913l0.05263,-0.63158l1.31579,-0.02632l-0.07895,0.65789z" fill="#424345" stroke-width="0.25" stroke-linecap="butt"></path><path d="M238.0678,152.98755l0.42105,-0.44737" fill="none" stroke-width="0.1" stroke-linecap="round"></path><path d="M239.04148,152.98755l-0.28947,-0.42106" fill="none" stroke-width="0.1" stroke-linecap="round"></path></g><path d="M238.17306,180.22439v-25.55263h1.02631v25.55263z" fill="none" stroke="none" stroke-width="NaN" stroke-linecap="butt"></path><g stroke="#000000"><path d="M242.91665,205.67009c0,0 0.10998,0.4082 0.17512,0.59616c0.07808,0.22532 0.15753,0.7446 0.15753,0.7446l-1.29957,0.03329c0,0 -0.05516,-0.53616 -0.02019,-0.76922c0.03093,-0.20614 0.08782,-0.55639 0.08782,-0.55639z" fill="#424345" stroke-width="0.25" stroke-linecap="butt"></path><path d="M243.26275,207.10698l-0.04332,0.63229l-1.31526,0.0457l0.06924,-0.65899z" fill="#424345" stroke-width="0.25" stroke-linecap="butt"></path><path d="M242.6924,207.6944l0.41441,-0.45353" fill="none" stroke-width="0.1" stroke-linecap="round"></path><path d="M242.13324,207.25522l0.29564,0.41674" fill="none" stroke-width="0.1" stroke-linecap="round"></path></g><path d="M242.60017,180.00854l0.37658,25.54985l-1.02621,0.01513l-0.37658,-25.54986z" fill="none" stroke="none" stroke-width="NaN" stroke-linecap="butt"></path><g stroke="#000000"><path d="M215.04406,182.32338c0,0 -0.41038,0.10153 -0.59965,0.16277c-0.22689,0.07342 -0.74769,0.14212 -0.74769,0.14212l-0.00644,-1.29998c0,0 0.53718,-0.04408 0.76947,-0.00431c0.20546,0.03518 0.55445,0.09929 0.55445,0.09929z" fill="#424345" stroke-width="0.25" stroke-linecap="butt"></path><path d="M213.60033,182.63973l-0.63126,-0.05636l-0.01853,-1.31592l0.65742,0.08284z" fill="#424345" stroke-width="0.25" stroke-linecap="butt"></path><path d="M213.46969,182.48106l-0.44487,-0.42369" fill="none" stroke-width="0.1" stroke-linecap="round"></path><path d="M213.47545,181.50739l-0.42276,0.28698" fill="none" stroke-width="0.1" stroke-linecap="round"></path></g><path d="M240.70667,182.53692l-25.55218,-0.15116l0.00607,-1.0263l25.55219,0.15116z" fill="none" stroke="none" stroke-width="NaN" stroke-linecap="butt"></path><g stroke="#000000"><path d="M266.14666,177.94395c0,0 0.40885,-0.10757 0.59718,-0.17159c0.22578,-0.07675 0.74552,-0.15313 0.74552,-0.15313l0.02559,1.29975c0,0 -0.53647,0.05199 -0.76932,0.01564c-0.20596,-0.03215 -0.55586,-0.0911 -0.55586,-0.0911z" fill="#424345" stroke-width="0.25" stroke-linecap="butt"></path><path d="M267.58556,177.60635l0.63202,0.04706l0.03791,1.31551l-0.65856,-0.07314z" fill="#424345" stroke-width="0.25" stroke-linecap="butt"></path><path d="M267.71853,177.76308l0.45106,0.41708" fill="none" stroke-width="0.1" stroke-linecap="round"></path><path d="M267.72712,178.73672l0.41849,-0.29317" fill="none" stroke-width="0.1" stroke-linecap="round"></path></g><path d="M240.48369,178.10862l25.55163,-0.22543l0.00905,1.02627l-25.55163,0.22543z" fill="none" stroke="none" stroke-width="NaN" stroke-linecap="butt"></path></g><g><g stroke="#000000"><path d="M222.73584,161.68956c0,0 -0.33783,-0.25414 -0.50482,-0.36225c-0.20018,-0.12959 -0.58229,-0.49008 -0.58229,-0.49008l1.00403,-0.82578c0,0 0.37335,0.38875 0.48917,0.59399c0.10244,0.18154 0.27308,0.49266 0.27308,0.49266z" fill="#424345" stroke-width="0.25" stroke-linecap="butt"></path><path d="M221.57898,160.76973l-0.35485,-0.52511l1.00876,-0.84521l0.35084,0.56211z" fill="#424345" stroke-width="0.25" stroke-linecap="butt"></path><path d="M221.66721,159.95574l-0.04768,0.61249" fill="none" stroke-width="0.1" stroke-linecap="round"></path><path d="M222.37823,159.95796l-0.48947,-0.14665" fill="none" stroke-width="0.1" stroke-linecap="round"></path></g><path d="M238.77309,181.72508l-16.01591,-19.91048l0.7997,-0.64328l16.01591,19.91048z" fill="none" stroke="none" stroke-width="NaN" stroke-linecap="butt"></path><g stroke="#000000"><path d="M258.41817,198.57905c0,0 0.34154,0.24914 0.51011,0.35477c0.20207,0.12662 0.58945,0.48145 0.58945,0.48145l-0.99176,0.84049c0,0 -0.37904,-0.3832 -0.49786,-0.58671c-0.10511,-0.18001 -0.28031,-0.48857 -0.28031,-0.48857z" fill="#424345" stroke-width="0.25" stroke-linecap="butt"></path><path d="M259.58846,199.48174l0.36256,0.51982l-0.9962,0.85999l-0.35909,-0.55688z" fill="#424345" stroke-width="0.25" stroke-linecap="butt"></path><path d="M259.51223,200.29694l0.03864,-0.61313" fill="none" stroke-width="0.1" stroke-linecap="round"></path><path d="M259.29284,200.44463l-0.49157,-0.13942" fill="none" stroke-width="0.1" stroke-linecap="round"></path></g><path d="M242.08739,178.78206l16.30759,19.67229l-0.79013,0.655l-16.30759,-19.6723z" fill="none" stroke="none" stroke-width="NaN" stroke-linecap="butt"></path><g stroke="#000000"><path d="M222.0667,197.85743c0,0 -0.25613,0.33632 -0.36522,0.50267c-0.13077,0.19941 -0.49352,0.57939 -0.49352,0.57939l-0.81983,-1.0089c0,0 0.39094,-0.37104 0.59687,-0.48565c0.18214,-0.10136 0.49426,-0.27015 0.49426,-0.27015z" fill="#424345" stroke-width="0.25" stroke-linecap="butt"></path><path d="M221.14003,199.00883l-0.52721,0.35174l-0.83923,-1.01375l0.56418,-0.34751z" fill="#424345" stroke-width="0.25" stroke-linecap="butt"></path><path d="M220.32658,198.91577l0.6122,0.05131" fill="none" stroke-width="0.1" stroke-linecap="round"></path><path d="M220.33299,198.20479l-0.14954,0.48859" fill="none" stroke-width="0.1" stroke-linecap="round"></path></g><path d="M242.19673,181.93898l-20.00488,15.89784l-0.63854,-0.80349l20.00489,-15.89785z" fill="none" stroke="none" stroke-width="NaN" stroke-linecap="butt"></path><g stroke="#000000"><path d="M259.14065,162.41484c0,0 0.25115,-0.34007 0.35778,-0.508c0.12782,-0.20132 0.48493,-0.58659 0.48493,-0.58659l0.8346,0.99671c0,0 -0.38543,0.37677 -0.58965,0.49438c-0.18063,0.10404 -0.49022,0.27741 -0.49022,0.27741z" fill="#424345" stroke-width="0.25" stroke-linecap="butt"></path><path d="M260.05024,161.24991l0.52196,-0.35948l0.85407,1.00127l-0.55899,0.35578z" fill="#424345" stroke-width="0.25" stroke-linecap="butt"></path><path d="M260.86498,161.33095l-0.61289,-0.04227" fill="none" stroke-width="0.1" stroke-linecap="round"></path><path d="M260.86904,162.04196l0.14233,-0.49073" fill="none" stroke-width="0.1" stroke-linecap="round"></path></g><path d="M239.2474,178.62823l19.76842,-16.19094l0.65031,0.79399l-19.76842,16.19093z" fill="none" stroke="none" stroke-width="NaN" stroke-linecap="butt"></path></g></g><g><g><g stroke="#000000"><path d="M230.54305,156.50471c0,0 -0.22411,-0.35846 -0.34117,-0.5193c-0.14032,-0.1928 -0.36757,-0.66644 -0.36757,-0.66644l1.23353,-0.41036c0,0 0.20893,0.49685 0.24336,0.72999c0.03045,0.20621 0.07804,0.55784 0.07804,0.55784z" fill="#424345" stroke-width="0.25" stroke-linecap="butt"></path><path d="M229.79345,155.23093l-0.14273,-0.61749l1.24493,-0.42681l0.12569,0.65058z" fill="#424345" stroke-width="0.25" stroke-linecap="butt"></path><path d="M229.90363,155.05742l0.26435,-0.55456" fill="none" stroke-width="0.1" stroke-linecap="round"></path><path d="M230.83081,154.76012l-0.40421,-0.31256" fill="none" stroke-width="0.1" stroke-linecap="round"></path></g><path d="M238.32003,180.96149l-7.80193,-24.33242l0.97731,-0.31336l7.80193,24.33243z" fill="none" stroke="none" stroke-width="NaN" stroke-linecap="butt"></path><g stroke="#000000"><path d="M250.60638,203.74374c0,0 0.22936,0.35513 0.34877,0.51423c0.14316,0.19072 0.37736,0.66094 0.37736,0.66094l-1.22735,0.42849c0,0 -0.21623,-0.49372 -0.25409,-0.72633c-0.03349,-0.20574 -0.08625,-0.55663 -0.08625,-0.55663z" fill="#424345" stroke-width="0.25" stroke-linecap="butt"></path><path d="M251.37467,205.00634l0.15181,0.61532l-1.2385,0.4451l-0.13527,-0.64866z" fill="#424345" stroke-width="0.25" stroke-linecap="butt"></path><path d="M251.26706,205.18145l-0.25615,0.5584" fill="none" stroke-width="0.1" stroke-linecap="round"></path><path d="M250.34437,205.49237l0.40876,0.30658" fill="none" stroke-width="0.1" stroke-linecap="round"></path></g><path d="M242.46983,179.40423l8.15967,24.21481l-0.97258,0.32773l-8.15968,-24.2148z" fill="none" stroke="none" stroke-width="NaN" stroke-linecap="butt"></path><g stroke="#000000"><path d="M216.93638,190.02217c0,0 -0.35979,0.22198 -0.52132,0.33808c-0.19364,0.13918 -0.66859,0.36363 -0.66859,0.36363l-0.40306,-1.23594c0,0 0.49808,-0.20599 0.73142,-0.23904c0.20639,-0.02923 0.55828,-0.07474 0.55828,-0.07474z" fill="#424345" stroke-width="0.25" stroke-linecap="butt"></path><path d="M215.65818,190.76423l-0.61832,0.13906l-0.41943,-1.24742l0.65132,-0.12184z" fill="#424345" stroke-width="0.25" stroke-linecap="butt"></path><path d="M214.93234,190.38539l0.55299,0.26763" fill="none" stroke-width="0.1" stroke-linecap="round"></path><path d="M215.19353,189.7241l-0.31495,0.40235" fill="none" stroke-width="0.1" stroke-linecap="round"></path></g><path d="M241.43873,182.39001l-24.37815,7.65785l-0.30757,-0.97914l24.37815,-7.65786z" fill="none" stroke="none" stroke-width="NaN" stroke-linecap="butt"></path><g stroke="#000000"><path d="M264.26151,170.24883c0,0 0.35648,-0.22726 0.51628,-0.34573c0.19157,-0.14202 0.66317,-0.37345 0.66317,-0.37345l0.42122,1.22987c0,0 -0.49498,0.21331 -0.72781,0.24979c-0.20593,0.03227 -0.55713,0.08297 -0.55713,0.08297z" fill="#424345" stroke-width="0.25" stroke-linecap="butt"></path><path d="M265.52865,169.48801l0.61621,-0.14817l0.43777,1.24111l-0.64945,0.13143z" fill="#424345" stroke-width="0.25" stroke-linecap="butt"></path><path d="M265.70312,169.59666l0.55687,0.25944" fill="none" stroke-width="0.1" stroke-linecap="round"></path><path d="M266.00858,170.52118l0.30899,-0.40694" fill="none" stroke-width="0.1" stroke-linecap="round"></path></g><path d="M239.87431,178.24125l24.26265,-8.01629l0.32197,0.9745l-24.26264,8.01629z" fill="none" stroke="none" stroke-width="NaN" stroke-linecap="butt"></path></g><g><g stroke="#000000"><path d="M217.96077,168.02517c0,0 -0.39929,-0.13885 -0.59132,-0.1908c-0.23019,-0.06228 -0.70412,-0.28889 -0.70412,-0.28889l0.70396,-1.09291c0,0 0.47422,0.25619 0.64718,0.41627c0.15297,0.14159 0.41045,0.38575 0.41045,0.38575z" fill="#424345" stroke-width="0.25" stroke-linecap="butt"></path><path d="M216.5783,167.50248l-0.49824,-0.39169l0.70253,-1.11285l0.50571,0.42815z" fill="#424345" stroke-width="0.25" stroke-linecap="butt"></path><path d="M216.41379,166.70043l0.14161,0.5978" fill="none" stroke-width="0.1" stroke-linecap="round"></path><path d="M216.58066,166.49523l0.51087,-0.0098" fill="none" stroke-width="0.1" stroke-linecap="round"></path></g><path d="M239.34961,182.20731l-21.33034,-14.0696l0.56511,-0.85673l21.33033,14.0696z" fill="none" stroke="none" stroke-width="NaN" stroke-linecap="butt"></path><g stroke="#000000"><path d="M263.20256,192.25827c0,0 0.4013,0.13296 0.59407,0.18207c0.23109,0.05888 0.7083,0.27848 0.7083,0.27848l-0.68777,1.10316c0,0 -0.47794,-0.24917 -0.65323,-0.40669c-0.15505,-0.13933 -0.41609,-0.37966 -0.41609,-0.37966z" fill="#424345" stroke-width="0.25" stroke-linecap="butt"></path><path d="M264.59259,192.76053l0.50396,0.38431l-0.68605,1.12309l-0.51197,-0.42065z" fill="#424345" stroke-width="0.25" stroke-linecap="butt"></path><path d="M264.76891,193.56008l-0.15041,-0.59565" fill="none" stroke-width="0.1" stroke-linecap="round"></path><path d="M264.60508,193.7677l-0.51066,0.01732" fill="none" stroke-width="0.1" stroke-linecap="round"></path></g><path d="M241.60705,178.39288l21.53537,13.75373l-0.55242,0.86496l-21.53536,-13.75373z" fill="none" stroke="none" stroke-width="NaN" stroke-linecap="butt"></path><g stroke="#000000"><path d="M228.36664,202.67022c0,0 -0.14122,0.39847 -0.19431,0.59018c-0.06365,0.22982 -0.29305,0.7024 -0.29305,0.7024l-1.08872,-0.71041c0,0 0.25898,-0.47269 0.42009,-0.6447c0.14249,-0.15213 0.38817,-0.40816 0.38817,-0.40816z" fill="#424345" stroke-width="0.25" stroke-linecap="butt"></path><path d="M227.83578,204.04958l-0.39464,0.49592l-1.10867,-0.70909l0.43113,-0.50317z" fill="#424345" stroke-width="0.25" stroke-linecap="butt"></path><path d="M227.63139,204.07127l-0.59863,0.13807" fill="none" stroke-width="0.1" stroke-linecap="round"></path><path d="M226.82179,203.53035l0.00678,0.51092" fill="none" stroke-width="0.1" stroke-linecap="round"></path></g><path d="M242.67506,181.36566l-14.19554,21.24674l-0.85337,-0.57016l14.19554,-21.24673z" fill="none" stroke="none" stroke-width="NaN" stroke-linecap="butt"></path><g stroke="#000000"><path d="M252.8486,157.60041c0,0 0.13533,-0.40051 0.18559,-0.59298c0.06025,-0.23074 0.28266,-0.70665 0.28266,-0.70665l1.09908,0.6943c0,0 -0.25199,0.47646 -0.41055,0.65081c-0.14024,0.15422 -0.38211,0.41384 -0.38211,0.41384z" fill="#424345" stroke-width="0.25" stroke-linecap="butt"></path><path d="M253.35907,156.21338l0.38728,-0.50168l1.119,0.69269l-0.42366,0.50947z" fill="#424345" stroke-width="0.25" stroke-linecap="butt"></path><path d="M253.56312,156.18867l0.59653,-0.14687" fill="none" stroke-width="0.1" stroke-linecap="round"></path><path d="M254.3806,156.71759l-0.0143,-0.51075" fill="none" stroke-width="0.1" stroke-linecap="round"></path></g><path d="M238.8557,179.11352l13.88089,-21.45362l0.86167,0.55752l-13.88088,21.45363z" fill="none" stroke="none" stroke-width="NaN" stroke-linecap="butt"></path></g></g></g><g><g><g><g stroke="#000000"><path d="M226.88898,158.42156c0,0 -0.27864,-0.31793 -0.41995,-0.45794c-0.16941,-0.16783 -0.4696,-0.59893 -0.4696,-0.59893l1.15185,-0.60269c0,0 0.28584,0.45696 0.35718,0.68157c0.0631,0.19867 0.16641,0.53813 0.16641,0.53813z" fill="#424345" stroke-width="0.25" stroke-linecap="butt"></path><path d="M225.94499,157.28433l-0.23981,-0.58665l1.16046,-0.62074l0.2283,0.62204z" fill="#424345" stroke-width="0.25" stroke-linecap="butt"></path><path d="M226.19803,156.50567l-0.17209,0.58975" fill="none" stroke-width="0.1" stroke-linecap="round"></path><path d="M226.44446,156.40965l0.44906,0.24377" fill="none" stroke-width="0.1" stroke-linecap="round"></path></g><path d="M238.48384,181.31643l-11.59956,-22.76812l0.91447,-0.46589l11.59956,22.76811z" fill="none" stroke="none" stroke-width="NaN" stroke-linecap="butt"></path><g stroke="#000000"><path d="M254.26153,201.83592c0,0 0.2833,0.31379 0.42666,0.4517c0.17186,0.16532 0.47837,0.59195 0.47837,0.59195l-1.14284,0.6196c0,0 -0.29254,-0.45269 -0.36718,-0.67623c-0.06601,-0.19771 -0.17433,-0.53562 -0.17433,-0.53562z" fill="#424345" stroke-width="0.25" stroke-linecap="butt"></path><path d="M255.22219,202.95912l0.24843,0.58305l-1.15119,0.63778l-0.23744,-0.61861z" fill="#424345" stroke-width="0.25" stroke-linecap="butt"></path><path d="M255.14403,203.14921l-0.16338,0.59222" fill="none" stroke-width="0.1" stroke-linecap="round"></path><path d="M254.73566,203.84107l-0.4526,-0.23712" fill="none" stroke-width="0.1" stroke-linecap="round"></path></g><path d="M242.33054,179.11443l11.93384,22.5947l-0.90751,0.47932l-11.93384,-22.59469z" fill="none" stroke="none" stroke-width="NaN" stroke-linecap="butt"></path><g stroke="#000000"><path d="M218.82808,193.68605c0,0 -0.31957,0.27675 -0.46041,0.41724c-0.16884,0.16841 -0.6017,0.46605 -0.6017,0.46605l-0.59587,-1.1554c0,0 0.45864,-0.28313 0.68367,-0.35314c0.19904,-0.06192 0.5391,-0.16322 0.5391,-0.16322z" fill="#424345" stroke-width="0.25" stroke-linecap="butt"></path><path d="M217.68528,194.6233l-0.58806,0.23633l-0.61387,-1.16411l0.62338,-0.22462z" fill="#424345" stroke-width="0.25" stroke-linecap="butt"></path><path d="M216.90812,194.36566l0.58872,0.17557" fill="none" stroke-width="0.1" stroke-linecap="round"></path><path d="M216.81356,194.11867l0.24642,-0.44761" fill="none" stroke-width="0.1" stroke-linecap="round"></path></g><path d="M241.79113,182.22684l-22.83633,11.46467l-0.46048,-0.91721l22.83634,-11.46467z" fill="none" stroke="none" stroke-width="NaN" stroke-linecap="butt"></path><g stroke="#000000"><path d="M262.3739,166.58594c0,0 0.31546,-0.28144 0.45421,-0.42398c0.16634,-0.17088 0.59477,-0.47487 0.59477,-0.47487l0.61283,1.1465c0,0 -0.45442,0.28985 -0.6784,0.36317c-0.1981,0.06484 -0.53664,0.17115 -0.53664,0.17115z" fill="#424345" stroke-width="0.25" stroke-linecap="butt"></path><path d="M263.50275,165.63194l0.58451,-0.24498l0.63096,1.15494l-0.62,0.23378z" fill="#424345" stroke-width="0.25" stroke-linecap="butt"></path><path d="M263.69239,165.71123l0.59125,0.16687" fill="none" stroke-width="0.1" stroke-linecap="round"></path><path d="M264.38182,166.12366l-0.2398,0.45119" fill="none" stroke-width="0.1" stroke-linecap="round"></path></g><path d="M239.58222,178.38231l22.6649,-11.79997l0.47394,0.91033l-22.66489,11.79997z" fill="none" stroke="none" stroke-width="NaN" stroke-linecap="butt"></path></g><g><g stroke="#000000"><path d="M216.31499,171.80908c0,0 -0.41639,-0.07309 -0.61426,-0.09361c-0.2372,-0.0246 -0.7413,-0.17235 -0.7413,-0.17235l0.51976,-1.19157c0,0 0.50913,0.1769 0.7055,0.3072c0.17369,0.11525 0.46696,0.31501 0.46696,0.31501z" fill="#424345" stroke-width="0.25" stroke-linecap="butt"></path><path d="M214.86664,171.51463l-0.55456,-0.3068l0.51516,-1.21104l0.56777,0.3416z" fill="#424345" stroke-width="0.25" stroke-linecap="butt"></path><path d="M214.81131,171.31668l-0.23555,-0.56739" fill="none" stroke-width="0.1" stroke-linecap="round"></path><path d="M214.70759,170.52002l0.5027,-0.09152" fill="none" stroke-width="0.1" stroke-linecap="round"></path></g><path d="M239.69972,182.3812l-23.30895,-10.47042l0.42054,-0.9362l23.30895,10.47042z" fill="none" stroke="none" stroke-width="NaN" stroke-linecap="butt"></path><g stroke="#000000"><path d="M264.85486,188.48073c0,0 0.41742,0.06694 0.61556,0.08454c0.23753,0.0211 0.74377,0.16141 0.74377,0.16141l-0.50215,1.19911c0,0 -0.51168,-0.16938 -0.70995,-0.29678c-0.17536,-0.11268 -0.47155,-0.30808 -0.47155,-0.30808z" fill="#424345" stroke-width="0.25" stroke-linecap="butt"></path><path d="M266.3074,188.7538l0.55902,0.2986l-0.49725,1.2185l-0.57275,-0.33319z" fill="#424345" stroke-width="0.25" stroke-linecap="butt"></path><path d="M266.36564,188.95091l0.24389,0.56386" fill="none" stroke-width="0.1" stroke-linecap="round"></path><path d="M265.9798,189.84488l0.50129,-0.09892" fill="none" stroke-width="0.1" stroke-linecap="round"></path></g><path d="M241.31688,178.25437l23.46072,10.12578l-0.4067,0.9423l-23.46072,-10.12578z" fill="none" stroke="none" stroke-width="NaN" stroke-linecap="butt"></path><g stroke="#000000"><path d="M232.13709,204.33941c0,0 -0.07555,0.41595 -0.09724,0.61369c-0.026,0.23704 -0.17673,0.74027 -0.17673,0.74027l-1.18848,-0.5268c0,0 0.1799,-0.50807 0.31136,-0.70368c0.11628,-0.173 0.31777,-0.46508 0.31777,-0.46508z" fill="#424345" stroke-width="0.25" stroke-linecap="butt"></path><path d="M231.83409,205.786l-0.31008,0.55274l-1.20797,-0.52231l0.34495,-0.56575z" fill="#424345" stroke-width="0.25" stroke-linecap="butt"></path><path d="M231.63581,205.84016l-0.56878,0.2322" fill="none" stroke-width="0.1" stroke-linecap="round"></path><path d="M230.75001,205.43594l0.08854,0.50323" fill="none" stroke-width="0.1" stroke-linecap="round"></path></g><path d="M242.84737,181.01764l-10.60812,23.2466l-0.9337,-0.42607l10.60812,-23.24661z" fill="none" stroke="none" stroke-width="NaN" stroke-linecap="butt"></path><g stroke="#000000"><path d="M249.08194,155.92943c0,0 0.06941,-0.41702 0.08819,-0.61506c0.0225,-0.2374 0.16579,-0.74281 0.16579,-0.74281l1.19612,0.50924c0,0 -0.1724,0.51067 -0.30097,0.70818c-0.11372,0.1747 -0.31087,0.46972 -0.31087,0.46972z" fill="#424345" stroke-width="0.25" stroke-linecap="butt"></path><path d="M249.3636,154.47851l0.30191,-0.55725l1.21553,0.50446l-0.33657,0.57076z" fill="#424345" stroke-width="0.25" stroke-linecap="butt"></path><path d="M249.56105,154.42146l0.56529,-0.24055" fill="none" stroke-width="0.1" stroke-linecap="round"></path><path d="M250.45272,154.81258l-0.09595,-0.50187" fill="none" stroke-width="0.1" stroke-linecap="round"></path></g><path d="M238.71653,179.40651l10.26438,-23.40041l0.93987,0.41226l-10.26438,23.40042z" fill="none" stroke="none" stroke-width="NaN" stroke-linecap="butt"></path></g></g><g><g><g stroke="#000000"><path d="M220.91779,163.64515c0,0 -0.36241,-0.21767 -0.53973,-0.30785c-0.21256,-0.10809 -0.63004,-0.42695 -0.63004,-0.42695l0.91283,-0.92561c0,0 0.41171,0.34787 0.54822,0.53997c0.12074,0.16992 0.32277,0.46162 0.32277,0.46162z" fill="#424345" stroke-width="0.25" stroke-linecap="butt"></path><path d="M219.67163,162.85045l-0.40748,-0.48541l0.91552,-0.94543l0.40733,0.52263z" fill="#424345" stroke-width="0.25" stroke-linecap="butt"></path><path d="M219.67485,162.0317l0.0162,0.61413" fill="none" stroke-width="0.1" stroke-linecap="round"></path><path d="M219.88019,161.86504l0.50206,0.09501" fill="none" stroke-width="0.1" stroke-linecap="round"></path></g><path d="M238.94939,181.90649l-17.99739,-18.13921l0.72856,-0.72286l17.99739,18.13921z" fill="none" stroke="none" stroke-width="NaN" stroke-linecap="butt"></path><g stroke="#000000"><path d="M260.23883,196.62875c0,0 0.36557,0.21231 0.5442,0.29986c0.21413,0.10495 0.63627,0.41762 0.63627,0.41762l-0.89909,0.93896c0,0 -0.41679,-0.34176 -0.55611,-0.53183c-0.12323,-0.16812 -0.32953,-0.45682 -0.32953,-0.45682z" fill="#424345" stroke-width="0.25" stroke-linecap="butt"></path><path d="M261.49656,197.405l0.41459,0.47935l-0.90148,0.95881l-0.41499,-0.51657z" fill="#424345" stroke-width="0.25" stroke-linecap="butt"></path><path d="M261.48017,197.60988l0.02525,0.61383" fill="none" stroke-width="0.1" stroke-linecap="round"></path><path d="M260.79916,198.30578l0.50339,0.0876" fill="none" stroke-width="0.1" stroke-linecap="round"></path></g><path d="M241.94007,178.63513l18.26276,17.87201l-0.71783,0.73352l-18.26276,-17.87201z" fill="none" stroke="none" stroke-width="NaN" stroke-linecap="butt"></path><g stroke="#000000"><path d="M224.00904,199.68688c0,0 -0.21982,0.36111 -0.31104,0.53789c-0.10935,0.21192 -0.43067,0.62751 -0.43067,0.62751l-0.92019,-0.91829c0,0 0.35029,-0.40964 0.5432,-0.54502c0.17063,-0.11973 0.46352,-0.32003 0.46352,-0.32003z" fill="#424345" stroke-width="0.25" stroke-linecap="butt"></path><path d="M223.20698,200.92831l-0.48782,0.4046l-0.93999,-0.92109l0.52504,-0.40422z" fill="#424345" stroke-width="0.25" stroke-linecap="butt"></path><path d="M222.38826,200.92026l0.61422,-0.01257" fill="none" stroke-width="0.1" stroke-linecap="round"></path><path d="M222.32079,200.21244l-0.09798,0.50148" fill="none" stroke-width="0.1" stroke-linecap="round"></path></g><path d="M242.37672,181.76361l-18.24535,17.88977l-0.71854,-0.73282l18.24535,-17.88977z" fill="none" stroke="none" stroke-width="NaN" stroke-linecap="butt"></path><g stroke="#000000"><path d="M257.20101,160.58512c0,0 0.21447,-0.36432 0.30308,-0.54242c0.10622,-0.2135 0.42138,-0.63379 0.42138,-0.63379l0.93362,0.90464c0,0 -0.34421,0.41476 -0.53511,0.55295c-0.16885,0.12223 -0.45876,0.32683 -0.45876,0.32683z" fill="#424345" stroke-width="0.25" stroke-linecap="butt"></path><path d="M257.98468,159.332l0.4818,-0.41174l0.95346,0.90714l-0.51901,0.41192z" fill="#424345" stroke-width="0.25" stroke-linecap="butt"></path><path d="M258.18946,159.34961l0.61397,-0.02162" fill="none" stroke-width="0.1" stroke-linecap="round"></path><path d="M258.88131,160.03472l0.09059,-0.50286" fill="none" stroke-width="0.1" stroke-linecap="round"></path></g><path d="M239.09946,178.77712l17.97973,-18.15671l0.72926,0.72215l-17.97972,18.15671z" fill="none" stroke="none" stroke-width="NaN" stroke-linecap="butt"></path></g><g><g stroke="#000000"><path d="M214.93631,179.6219c0,0 -0.41881,0.05754 -0.6135,0.09841c-0.23338,0.049 -0.75853,0.06223 -0.75853,0.06223l0.13112,-1.29337c0,0 0.53884,0.013 0.76561,0.07712c0.20058,0.05672 0.54084,0.15739 0.54084,0.15739z" fill="#424345" stroke-width="0.25" stroke-linecap="butt"></path><path d="M213.46721,179.78374l-0.62175,-0.12283l0.12079,-1.3105l0.64496,0.15192z" fill="#424345" stroke-width="0.25" stroke-linecap="butt"></path><path d="M213.35409,179.61214l-0.39755,-0.46838" fill="none" stroke-width="0.1" stroke-linecap="round"></path><path d="M213.01208,178.88519l0.45075,-0.24064" fill="none" stroke-width="0.1" stroke-linecap="round"></path></g><path d="M240.43232,182.54918l-25.3928,-2.85355l0.11461,-1.0199l25.3928,2.85356z" fill="none" stroke="none" stroke-width="NaN" stroke-linecap="butt"></path><g stroke="#000000"><path d="M266.24859,180.67687c0,0 0.41793,-0.0637 0.61199,-0.10745c0.23263,-0.05244 0.75753,-0.0734 0.75753,-0.0734l-0.11205,1.29516c0,0 -0.53896,-0.00506 -0.76666,-0.06584c-0.2014,-0.05376 -0.54309,-0.1494 -0.54309,-0.1494z" fill="#424345" stroke-width="0.25" stroke-linecap="butt"></path><path d="M267.71513,180.4934l0.6235,0.11365l-0.10147,1.31214l-0.64713,-0.14241z" fill="#424345" stroke-width="0.25" stroke-linecap="butt"></path><path d="M267.83078,180.66331l0.4044,0.46246" fill="none" stroke-width="0.1" stroke-linecap="round"></path><path d="M268.18347,181.38514l-0.44714,0.24725" fill="none" stroke-width="0.1" stroke-linecap="round"></path></g><path d="M240.71221,178.12565l25.43209,2.47903l-0.09958,1.02147l-25.43209,-2.47903z" fill="none" stroke="none" stroke-width="NaN" stroke-linecap="butt"></path><g stroke="#000000"><path d="M239.93528,205.7679c0,0 0.05506,0.41916 0.09478,0.61408c0.04762,0.23367 0.05774,0.75888 0.05774,0.75888l-1.29257,-0.13877c0,0 0.01619,-0.53875 0.08165,-0.76515c0.05791,-0.20024 0.16059,-0.5399 0.16059,-0.5399z" fill="#424345" stroke-width="0.25" stroke-linecap="butt"></path><path d="M240.08843,207.23793l-0.12652,0.62101l-1.30975,-0.12854l0.15573,-0.64405z" fill="#424345" stroke-width="0.25" stroke-linecap="butt"></path><path d="M239.91615,207.35004l-0.47072,0.39477" fill="none" stroke-width="0.1" stroke-linecap="round"></path><path d="M239.1872,207.68775l-0.23797,-0.45217" fill="none" stroke-width="0.1" stroke-linecap="round"></path></g><path d="M243.01333,180.28966l-3.00372,25.37547l-1.0192,-0.12064l3.00372,-25.37547z" fill="none" stroke="none" stroke-width="NaN" stroke-linecap="butt"></path><g stroke="#000000"><path d="M241.29005,154.49588c0,0 -0.06123,-0.4183 -0.10381,-0.61261c-0.05105,-0.23294 -0.06893,-0.75796 -0.06893,-0.75796l1.29449,0.11972c0,0 -0.00824,0.53893 -0.07037,0.76626c-0.05495,0.20108 -0.15261,0.5422 -0.15261,0.5422z" fill="#424345" stroke-width="0.25" stroke-linecap="butt"></path><path d="M241.11526,153.02828l0.11735,-0.62282l1.31151,0.10923l-0.14623,0.64628z" fill="#424345" stroke-width="0.25" stroke-linecap="butt"></path><path d="M241.28586,152.91365l0.46485,-0.40167" fill="none" stroke-width="0.1" stroke-linecap="round"></path><path d="M242.00976,152.56523l0.24459,0.44861" fill="none" stroke-width="0.1" stroke-linecap="round"></path></g><path d="M238.58781,180.01673l2.62944,-25.41699l1.02086,0.10561l-2.62942,25.41699z" fill="none" stroke="none" stroke-width="NaN" stroke-linecap="butt"></path></g></g></g></g><g><g><g><g stroke="#000000"><path d="M239.52909,156.34536l0.16598,-1.78693l1.75071,0.09481l0.15494,1.71323z" fill="#424345" stroke-width="0.25" stroke-linecap="butt"></path><path d="M239.70852,154.51804c0,0 -0.03682,-0.56682 0.17937,-0.67458c0.15779,-0.07865 1.26892,-0.0366 1.39627,0.07676c0.17822,0.15864 0.1668,0.6881 0.1668,0.6881z" fill="#424345" stroke-width="0.25" stroke-linecap="butt"></path><path d="M239.91437,154.41297l0.45373,-0.54324" fill="none" stroke-width="0.1" stroke-linecap="round"></path><path d="M240.77136,153.88378l0.47579,0.60667" fill="none" stroke-width="0.1" stroke-linecap="round"></path></g><path d="M239.49369,180.13545v-23.69342h2.15385v23.69342z" fill="none" stroke="none" stroke-width="NaN" stroke-linecap="butt"></path></g><g><g stroke="#000000"><path d="M241.08823,203.85429l-0.16635,1.78689l-1.75069,-0.09516l-0.15459,-1.71327z" fill="#424345" stroke-width="0.25" stroke-linecap="butt"></path><path d="M240.90843,205.68157c0,0 0.03671,0.56683 -0.17951,0.67454c-0.15781,0.07862 -1.26892,0.03634 -1.39625,-0.07704c-0.17819,-0.15867 -0.16666,-0.68814 -0.16666,-0.68814z" fill="#424345" stroke-width="0.25" stroke-linecap="butt"></path><path d="M240.70257,205.7866l-0.45385,0.54314" fill="none" stroke-width="0.1" stroke-linecap="round"></path><path d="M239.84546,206.31561l-0.47567,-0.60677" fill="none" stroke-width="0.1" stroke-linecap="round"></path></g><path d="M241.1285,180.0642l-0.00485,23.69343l-2.15385,-0.00044l0.00485,-23.69342z" fill="none" stroke="none" stroke-width="NaN" stroke-linecap="butt"></path></g><g><g stroke="#000000"><path d="M216.54699,180.60886l-1.78492,-0.18631l0.11472,-1.74952l1.71489,-0.13543z" fill="#424345" stroke-width="0.25" stroke-linecap="butt"></path><path d="M214.72183,180.40864c0,0 -0.56721,0.03037 -0.67249,-0.18704c-0.07685,-0.15868 -0.02214,-1.26925 0.09265,-1.3953c0.16065,-0.1764 0.68996,-0.15896 0.68996,-0.15896z" fill="#424345" stroke-width="0.25" stroke-linecap="butt"></path><path d="M214.08108,179.74173l0.53804,0.45989" fill="none" stroke-width="0.1" stroke-linecap="round"></path><path d="M214.71176,178.86979l-0.61205,0.46886" fill="none" stroke-width="0.1" stroke-linecap="round"></path></g><path d="M240.33514,180.91508l-23.69189,-0.26973l0.02452,-2.15371l23.69189,0.26972z" fill="none" stroke="none" stroke-width="NaN" stroke-linecap="butt"></path></g><g><g stroke="#000000"><path d="M264.07059,179.59066l1.78489,0.18667l-0.11509,1.7495l-1.71491,0.13508z" fill="#424345" stroke-width="0.25" stroke-linecap="butt"></path><path d="M265.89571,179.79126c0,0 0.56721,-0.03025 0.67246,0.18717c0.07683,0.15869 0.02188,1.26926 -0.09294,1.39529c-0.16069,0.17637 -0.68999,0.15882 -0.68999,0.15882z" fill="#424345" stroke-width="0.25" stroke-linecap="butt"></path><path d="M266.53632,180.4583l-0.53793,-0.46" fill="none" stroke-width="0.1" stroke-linecap="round"></path><path d="M265.90546,181.33011l0.61215,-0.46873" fill="none" stroke-width="0.1" stroke-linecap="round"></path></g><path d="M240.28251,179.27957l23.69183,0.27457l-0.02496,2.1537l-23.69183,-0.27457z" fill="none" stroke="none" stroke-width="NaN" stroke-linecap="butt"></path></g></g><g><g><g stroke="#000000"><path d="M255.77964,162.05731l1.32944,-1.20551l1.22688,1.25249l-1.04302,1.36795z" fill="#424345" stroke-width="0.25" stroke-linecap="butt"></path><path d="M257.14628,160.83111c0,0 0.35573,-0.44283 0.58794,-0.37625c0.16949,0.04859 0.96038,0.83015 0.97771,0.99976c0.02426,0.23736 -0.34181,0.62006 -0.34181,0.62006z" fill="#424345" stroke-width="0.25" stroke-linecap="butt"></path><path d="M258.07056,160.79861l-0.70152,0.09408" fill="none" stroke-width="0.1" stroke-linecap="round"></path><path d="M258.35841,161.08136l-0.05896,0.76874" fill="none" stroke-width="0.1" stroke-linecap="round"></path></g><path d="M239.68362,179.57553l16.00462,-17.47084l1.58819,1.4549l-16.00463,17.47084z" fill="none" stroke="none" stroke-width="NaN" stroke-linecap="butt"></path></g><g><g stroke="#000000"><path d="M224.8376,198.14221l-1.32968,1.20524l-1.22663,-1.25274l1.0433,-1.36773z" fill="#424345" stroke-width="0.25" stroke-linecap="butt"></path><path d="M223.47071,199.36814c0,0 -0.35582,0.44276 -0.58801,0.37614c-0.16948,-0.04862 -0.96021,-0.83035 -0.97751,-0.99996c-0.02421,-0.23737 0.34194,-0.61999 0.34194,-0.61999z" fill="#424345" stroke-width="0.25" stroke-linecap="butt"></path><path d="M222.54643,199.40046l0.70153,-0.09393" fill="none" stroke-width="0.1" stroke-linecap="round"></path><path d="M222.25861,199.11764l0.05912,-0.76873" fill="none" stroke-width="0.1" stroke-linecap="round"></path></g><path d="M240.9372,180.62729l-16.00819,17.46757l-1.58789,-1.45523l16.0082,-17.46757z" fill="none" stroke="none" stroke-width="NaN" stroke-linecap="butt"></path></g><g><g stroke="#000000"><path d="M222.4436,164.42439l-1.1903,-1.34307l1.26638,-1.21255l1.35599,1.05853z" fill="#424345" stroke-width="0.25" stroke-linecap="butt"></path><path d="M221.23303,163.04388c0,0 -0.43876,-0.36074 -0.36954,-0.59217c0.05051,-0.16892 0.84104,-0.95087 1.01083,-0.96627c0.23762,-0.02156 0.61613,0.34885 0.61613,0.34885z" fill="#424345" stroke-width="0.25" stroke-linecap="butt"></path><path d="M221.21105,162.1193l0.08608,0.70254" fill="none" stroke-width="0.1" stroke-linecap="round"></path><path d="M222.26508,161.90238l-0.76802,-0.06771" fill="none" stroke-width="0.1" stroke-linecap="round"></path></g><path d="M239.77744,180.7188l-17.28752,-16.20248l1.47288,-1.57152l17.28752,16.20247z" fill="none" stroke="none" stroke-width="NaN" stroke-linecap="butt"></path></g><g><g stroke="#000000"><path d="M258.17391,195.77523l1.19002,1.34331l-1.26663,1.21229l-1.35577,-1.05881z" fill="#424345" stroke-width="0.25" stroke-linecap="butt"></path><path d="M259.38419,197.15598c0,0 0.43868,0.36084 0.36942,0.59225c-0.05055,0.16891 -0.84123,0.9507 -1.01103,0.96607c-0.23763,0.0215 -0.61605,-0.34897 -0.61605,-0.34897z" fill="#424345" stroke-width="0.25" stroke-linecap="butt"></path><path d="M259.40599,198.08057l-0.08594,-0.70256" fill="none" stroke-width="0.1" stroke-linecap="round"></path><path d="M258.35192,198.29727l0.768,0.06787" fill="none" stroke-width="0.1" stroke-linecap="round"></path></g><path d="M240.8434,179.47727l17.28421,16.20601l-1.47321,1.57122l-17.28421,-16.20601z" fill="none" stroke="none" stroke-width="NaN" stroke-linecap="butt"></path></g></g><g><g><g stroke="#000000"><path d="M249.15272,158.03931l0.87093,-1.56912l1.5646,0.7912l-0.54749,1.63078z" fill="#424345" stroke-width="0.25" stroke-linecap="butt"></path><path d="M250.05222,156.43864c0,0 0.19435,-0.53373 0.43563,-0.5454c0.17611,-0.00851 1.1764,0.47706 1.24738,0.63207c0.09933,0.21694 -0.12417,0.69706 -0.12417,0.69706z" fill="#424345" stroke-width="0.25" stroke-linecap="butt"></path><path d="M250.28294,156.42526l0.63396,-0.31476" fill="none" stroke-width="0.1" stroke-linecap="round"></path><path d="M251.28043,156.28562l0.19148,0.74684" fill="none" stroke-width="0.1" stroke-linecap="round"></path></g><path d="M239.54821,179.8045l9.53321,-21.69093l1.97182,0.86662l-9.53321,21.69093z" fill="none" stroke="none" stroke-width="NaN" stroke-linecap="butt"></path></g><g><g stroke="#000000"><path d="M231.46455,202.16027l-0.87126,1.56894l-1.56444,-0.79152l0.54782,-1.63067z" fill="#424345" stroke-width="0.25" stroke-linecap="butt"></path><path d="M230.56472,203.76077c0,0 -0.19447,0.53369 -0.43574,0.54531c-0.17611,0.00849 -1.1763,-0.47729 -1.24724,-0.63233c-0.09929,-0.21696 0.1243,-0.69703 0.1243,-0.69703z" fill="#424345" stroke-width="0.25" stroke-linecap="butt"></path><path d="M230.334,203.77409l-0.63403,0.31463" fill="none" stroke-width="0.1" stroke-linecap="round"></path><path d="M229.14515,203.16665l0.19133,0.74688" fill="none" stroke-width="0.1" stroke-linecap="round"></path></g><path d="M241.07351,180.39705l-9.53765,21.68898l-1.97164,-0.86702l9.53764,-21.68897z" fill="none" stroke="none" stroke-width="NaN" stroke-linecap="butt"></path></g><g><g stroke="#000000"><path d="M218.35042,171.00514l-1.5591,-0.88874l0.80895,-1.55549l1.62445,0.56602z" fill="#424345" stroke-width="0.25" stroke-linecap="butt"></path><path d="M216.76007,170.08747c0,0 -0.53149,-0.20041 -0.5404,-0.44181c-0.00652,-0.17619 0.49042,-1.17089 0.64623,-1.2401c0.21805,-0.09686 0.69561,0.13208 0.69561,0.13208z" fill="#424345" stroke-width="0.25" stroke-linecap="butt"></path><path d="M216.74933,169.85662l-0.30752,-0.6375" fill="none" stroke-width="0.1" stroke-linecap="round"></path><path d="M217.37002,168.67463l-0.74897,0.18297" fill="none" stroke-width="0.1" stroke-linecap="round"></path></g><path d="M240.00485,180.8568l-21.58099,-9.77952l0.889,-1.96182l21.58099,9.77952z" fill="none" stroke="none" stroke-width="NaN" stroke-linecap="butt"></path></g><g><g stroke="#000000"><path d="M262.26714,189.19444l1.55893,0.88906l-0.80929,1.55532l-1.62432,-0.56635z" fill="#424345" stroke-width="0.25" stroke-linecap="butt"></path><path d="M263.85729,190.11243c0,0 0.53144,0.20052 0.54031,0.44192c0.00648,0.1762 -0.49066,1.17079 -0.64648,1.23997c-0.21807,0.09681 -0.69557,-0.13223 -0.69557,-0.13223z" fill="#424345" stroke-width="0.25" stroke-linecap="butt"></path><path d="M263.86798,190.34329l0.30739,0.63756" fill="none" stroke-width="0.1" stroke-linecap="round"></path><path d="M263.99606,191.34233l-0.74901,0.18281" fill="none" stroke-width="0.1" stroke-linecap="round"></path></g><path d="M240.61472,179.33835l21.57899,9.78394l-0.88941,1.96164l-21.57899,-9.78394z" fill="none" stroke="none" stroke-width="NaN" stroke-linecap="butt"></path></g></g><g><g><g stroke="#000000"><path d="M261.73157,169.80705l1.70212,-0.56871l0.61924,1.64028l-1.50527,0.83266z" fill="#424345" stroke-width="0.25" stroke-linecap="butt"></path><path d="M263.47607,169.23435c0,0 0.50385,-0.26227 0.68964,-0.10789c0.13561,0.11267 0.5452,1.1464 0.49282,1.30865c-0.0733,0.22706 -0.5624,0.43013 -0.5624,0.43013z" fill="#424345" stroke-width="0.25" stroke-linecap="butt"></path><path d="M263.65524,169.38034l0.68008,0.19614" fill="none" stroke-width="0.1" stroke-linecap="round"></path><path d="M264.12181,170.6312l0.36328,-0.68004" fill="none" stroke-width="0.1" stroke-linecap="round"></path></g><path d="M239.94737,179.36833l21.68147,-9.55469l0.86857,1.97096l-21.68148,9.55469z" fill="none" stroke="none" stroke-width="NaN" stroke-linecap="butt"></path></g><g><g stroke="#000000"><path d="M218.88566,190.39241l-1.70224,0.56837l-0.6189,-1.64041l1.50544,-0.83236z" fill="#424345" stroke-width="0.25" stroke-linecap="butt"></path><path d="M217.14104,190.96474c0,0 -0.5039,0.26217 -0.68966,0.10775c-0.13558,-0.11271 -0.54496,-1.14652 -0.49256,-1.30875c0.07334,-0.22705 0.5625,-0.43 0.5625,-0.43z" fill="#424345" stroke-width="0.25" stroke-linecap="butt"></path><path d="M216.96191,190.81871l-0.68004,-0.19627" fill="none" stroke-width="0.1" stroke-linecap="round"></path><path d="M216.13217,190.24773l0.36343,-0.67997" fill="none" stroke-width="0.1" stroke-linecap="round"></path></g><path d="M240.67182,180.83558l-21.68342,9.55026l-0.86817,-1.97113l21.68343,-9.55025z" fill="none" stroke="none" stroke-width="NaN" stroke-linecap="butt"></path></g><g><g stroke="#000000"><path d="M230.2606,158.56107l-0.54931,-1.70849l1.64722,-0.60053l0.81548,1.51465z" fill="#424345" stroke-width="0.25" stroke-linecap="butt"></path><path d="M229.70779,156.81016c0,0 -0.25653,-0.50679 -0.10004,-0.69081c0.11421,-0.13432 1.15254,-0.53211 1.31418,-0.47789c0.22621,0.07587 0.4237,0.56727 0.4237,0.56727z" fill="#424345" stroke-width="0.25" stroke-linecap="butt"></path><path d="M230.05968,155.95487l-0.20387,0.6778" fill="none" stroke-width="0.1" stroke-linecap="round"></path><path d="M230.43604,155.80937l0.67587,0.371" fill="none" stroke-width="0.1" stroke-linecap="round"></path></g><path d="M239.57326,180.45272l-9.30725,-21.78884l1.98071,-0.84608l9.30725,21.78884z" fill="none" stroke="none" stroke-width="NaN" stroke-linecap="butt"></path></g><g><g stroke="#000000"><path d="M250.35686,201.63857l0.54896,1.7086l-1.64735,0.60019l-0.81517,-1.51482z" fill="#424345" stroke-width="0.25" stroke-linecap="butt"></path><path d="M250.9093,203.38959c0,0 0.25642,0.50685 0.0999,0.69083c-0.11424,0.1343 -1.15266,0.53187 -1.31429,0.47762c-0.22619,-0.07593 -0.42357,-0.56735 -0.42357,-0.56735z" fill="#424345" stroke-width="0.25" stroke-linecap="butt"></path><path d="M250.55724,204.2448l0.20401,-0.67776" fill="none" stroke-width="0.1" stroke-linecap="round"></path><path d="M250.18084,204.39022l-0.67579,-0.37115" fill="none" stroke-width="0.1" stroke-linecap="round"></path></g><path d="M241.04867,179.74502l9.3028,21.79075l-1.98089,0.84567l-9.3028,-21.79074z" fill="none" stroke="none" stroke-width="NaN" stroke-linecap="butt"></path></g></g><g><g><g stroke="#000000"><path d="M244.31389,156.67246l0.52134,-1.71723l1.69603,0.44435l-0.19216,1.70946z" fill="#424345" stroke-width="0.25" stroke-linecap="butt"></path><path d="M244.85652,154.91837c0,0 0.07772,-0.56267 0.31115,-0.62484c0.17037,-0.04537 1.25043,0.2189 1.35243,0.35551c0.14274,0.19118 0.02526,0.70758 0.02526,0.70758z" fill="#424345" stroke-width="0.25" stroke-linecap="butt"></path><path d="M245.63282,154.41568l-0.55356,0.44108" fill="none" stroke-width="0.1" stroke-linecap="round"></path><path d="M246.02505,154.51039l0.34431,0.68984" fill="none" stroke-width="0.1" stroke-linecap="round"></path></g><path d="M239.50311,179.97109l4.75669,-23.21104l2.11,0.43241l-4.75669,23.21104z" fill="none" stroke="none" stroke-width="NaN" stroke-linecap="butt"></path></g><g><g stroke="#000000"><path d="M236.3034,203.52715l-0.5217,1.71712l-1.69594,-0.4447l0.19251,-1.70942z" fill="#424345" stroke-width="0.25" stroke-linecap="butt"></path><path d="M235.76041,205.28113c0,0 -0.07784,0.56266 -0.31128,0.62477c-0.17038,0.04534 -1.25038,-0.21915 -1.35236,-0.35579c-0.14271,-0.19121 -0.02512,-0.70759 -0.02512,-0.70759z" fill="#424345" stroke-width="0.25" stroke-linecap="butt"></path><path d="M234.98401,205.78366l0.55365,-0.44097" fill="none" stroke-width="0.1" stroke-linecap="round"></path><path d="M234.59179,205.68886l-0.34417,-0.68992" fill="none" stroke-width="0.1" stroke-linecap="round"></path></g><path d="M241.11894,180.2295l-4.76143,23.21007l-2.10991,-0.43284l4.76143,-23.21007z" fill="none" stroke="none" stroke-width="NaN" stroke-linecap="butt"></path></g><g><g stroke="#000000"><path d="M216.92856,175.82809l-1.71118,-0.54086l0.46362,-1.69086l1.70716,0.21161z" fill="#424345" stroke-width="0.25" stroke-linecap="butt"></path><path d="M215.18075,175.26553c0,0 -0.56176,-0.08412 -0.62125,-0.31824c-0.04343,-0.17088 0.23312,-1.24786 0.37088,-1.3483c0.1928,-0.14056 0.70783,-0.01721 0.70783,-0.01721z" fill="#424345" stroke-width="0.25" stroke-linecap="butt"></path><path d="M215.12168,175.0421l-0.43475,-0.55854" fill="none" stroke-width="0.1" stroke-linecap="round"></path><path d="M215.47983,173.75599l-0.69372,0.33644" fill="none" stroke-width="0.1" stroke-linecap="round"></path></g><path d="M240.17091,180.90379l-23.15538,-5.02061l0.4564,-2.10494l23.15538,5.02061z" fill="none" stroke="none" stroke-width="NaN" stroke-linecap="butt"></path></g><g><g stroke="#000000"><path d="M263.68901,184.37146l1.71107,0.54121l-0.46398,1.69077l-1.70712,-0.21196z" fill="#424345" stroke-width="0.25" stroke-linecap="butt"></path><path d="M265.4367,184.93438c0,0 0.56173,0.08424 0.62119,0.31837c0.0434,0.17089 -0.23338,1.24781 -0.37116,1.34822c-0.19283,0.14052 -0.70783,0.01706 -0.70783,0.01706z" fill="#424345" stroke-width="0.25" stroke-linecap="butt"></path><path d="M265.49572,185.15782l0.43463,0.55863" fill="none" stroke-width="0.1" stroke-linecap="round"></path><path d="M265.8311,186.10756l-0.69379,0.33629" fill="none" stroke-width="0.1" stroke-linecap="round"></path></g><path d="M240.4477,179.29101l23.15436,5.02535l-0.45683,2.10485l-23.15436,-5.02535z" fill="none" stroke="none" stroke-width="NaN" stroke-linecap="butt"></path></g></g><g><g><g stroke="#000000"><path d="M259.08685,165.5306l1.54439,-0.91407l0.95045,1.4733l-1.29641,1.1307z" fill="#424345" stroke-width="0.25" stroke-linecap="butt"></path><path d="M260.67184,164.60372c0,0 0.43739,-0.3624 0.6515,-0.25056c0.15628,0.08163 0.77417,1.00605 0.7571,1.17569c-0.02389,0.2374 -0.45933,0.53881 -0.45933,0.53881z" fill="#424345" stroke-width="0.25" stroke-linecap="butt"></path><path d="M260.8777,164.70875l0.70612,0.04868" fill="none" stroke-width="0.1" stroke-linecap="round"></path><path d="M261.80906,165.09222l-0.21209,0.74125" fill="none" stroke-width="0.1" stroke-linecap="round"></path></g><path d="M239.80159,179.46071l19.18622,-13.90206l1.26377,1.74412l-19.18622,13.90206z" fill="none" stroke="none" stroke-width="NaN" stroke-linecap="butt"></path></g><g><g stroke="#000000"><path d="M221.53038,194.6689l-1.54458,0.91375l-0.95015,-1.47349l1.29665,-1.13044z" fill="#424345" stroke-width="0.25" stroke-linecap="butt"></path><path d="M219.9452,195.59544c0,0 -0.43746,0.36231 -0.65155,0.25043c-0.15626,-0.08166 -0.77396,-1.00622 -0.75686,-1.17585c0.02394,-0.23739 0.45945,-0.53872 0.45945,-0.53872z" fill="#424345" stroke-width="0.25" stroke-linecap="butt"></path><path d="M219.73936,195.49037l-0.70611,-0.04882" fill="none" stroke-width="0.1" stroke-linecap="round"></path><path d="M218.80808,195.10671l0.21225,-0.74121" fill="none" stroke-width="0.1" stroke-linecap="round"></path></g><path d="M240.81849,180.74273l-19.18906,13.89814l-1.26341,-1.74438l19.18906,-13.89814z" fill="none" stroke="none" stroke-width="NaN" stroke-linecap="butt"></path></g><g><g stroke="#000000"><path d="M225.95431,161.15694l-0.89644,-1.5547l1.48402,-0.93362l1.11587,1.3092z" fill="#424345" stroke-width="0.25" stroke-linecap="butt"></path><path d="M225.04553,159.5615c0,0 -0.3574,-0.44148 -0.24313,-0.65431c0.0834,-0.15534 1.01481,-0.76266 1.18424,-0.74367c0.23711,0.02659 0.53356,0.46544 0.53356,0.46544z" fill="#424345" stroke-width="0.25" stroke-linecap="butt"></path><path d="M225.20961,158.65133l-0.05672,0.70552" fill="none" stroke-width="0.1" stroke-linecap="round"></path><path d="M225.54695,158.42991l0.73879,0.22052" fill="none" stroke-width="0.1" stroke-linecap="round"></path></g><path d="M239.66397,180.59954l-13.68274,-19.34324l1.7584,-1.24383l13.68274,19.34323z" fill="none" stroke="none" stroke-width="NaN" stroke-linecap="butt"></path></g><g><g stroke="#000000"><path d="M254.66318,199.04269l0.89611,1.55487l-1.48422,0.93332l-1.1156,-1.30943z" fill="#424345" stroke-width="0.25" stroke-linecap="butt"></path><path d="M255.57162,200.63831c0,0 0.35731,0.44156 0.24299,0.65436c-0.08343,0.15532 -1.01497,0.76246 -1.18439,0.74343c-0.2371,-0.02664 -0.53345,-0.46555 -0.53345,-0.46555z" fill="#424345" stroke-width="0.25" stroke-linecap="butt"></path><path d="M255.40735,201.54845l0.05686,-0.70551" fill="none" stroke-width="0.1" stroke-linecap="round"></path><path d="M255.06997,201.7698l-0.73874,-0.22067" fill="none" stroke-width="0.1" stroke-linecap="round"></path></g><path d="M240.95748,179.59729l13.67879,19.34604l-1.75865,1.24347l-13.67879,-19.34604z" fill="none" stroke="none" stroke-width="NaN" stroke-linecap="butt"></path></g></g><g><g><g stroke="#000000"><path d="M253.40151,160.26397l1.16822,-1.36232l1.3739,1.0892l-0.86374,1.48766z" fill="#424345" stroke-width="0.25" stroke-linecap="butt"></path><path d="M254.60405,158.87647c0,0 0.29754,-0.48385 0.53625,-0.44683c0.17423,0.02701 1.05668,0.70352 1.09509,0.86963c0.05376,0.23246 -0.26158,0.65794 -0.26158,0.65794z" fill="#424345" stroke-width="0.25" stroke-linecap="butt"></path><path d="M254.83276,158.90969l0.68424,-0.18108" fill="none" stroke-width="0.1" stroke-linecap="round"></path><path d="M255.83797,158.97314l0.03765,0.77008" fill="none" stroke-width="0.1" stroke-linecap="round"></path></g><path d="M239.62296,179.65783l13.69379,-19.33543l1.75769,1.24484l-13.69379,19.33542z" fill="none" stroke="none" stroke-width="NaN" stroke-linecap="butt"></path></g><g><g stroke="#000000"><path d="M227.21574,199.93557l-1.1685,1.36208l-1.37368,-1.08948l0.86404,-1.48749z" fill="#424345" stroke-width="0.25" stroke-linecap="butt"></path><path d="M226.01291,201.32284c0,0 -0.29765,0.48378 -0.53635,0.44672c-0.17423,-0.02704 -1.05653,-0.70373 -1.09491,-0.86985c-0.05371,-0.23247 0.26171,-0.65789 0.26171,-0.65789z" fill="#424345" stroke-width="0.25" stroke-linecap="butt"></path><path d="M225.78422,201.28956l-0.68428,0.18094" fill="none" stroke-width="0.1" stroke-linecap="round"></path><path d="M224.74152,200.45581l0.03749,0.77009" fill="none" stroke-width="0.1" stroke-linecap="round"></path></g><path d="M240.99825,180.54454l-13.69774,19.33262l-1.75743,-1.24519l13.69774,-19.33262z" fill="none" stroke="none" stroke-width="NaN" stroke-linecap="butt"></path></g><g><g stroke="#000000"><path d="M220.62331,166.78195l-1.34894,-1.18365l1.10476,-1.36142l1.47774,0.88061z" fill="#424345" stroke-width="0.25" stroke-linecap="butt"></path><path d="M219.24957,165.56369c0,0 -0.48043,-0.30303 -0.4407,-0.54131c0.02899,-0.17391 0.7155,-1.04859 0.88204,-1.08512c0.23306,-0.05111 0.65493,0.26905 0.65493,0.26905z" fill="#424345" stroke-width="0.25" stroke-linecap="butt"></path><path d="M219.2854,165.33538l-0.17328,-0.68626" fill="none" stroke-width="0.1" stroke-linecap="round"></path><path d="M219.36029,164.33095l0.77045,-0.02888" fill="none" stroke-width="0.1" stroke-linecap="round"></path></g><path d="M239.85904,180.78038l-19.17828,-13.91301l1.26476,-1.7434l19.17828,13.91301z" fill="none" stroke="none" stroke-width="NaN" stroke-linecap="butt"></path></g><g><g stroke="#000000"><path d="M259.99422,193.41765l1.3487,1.18393l-1.10506,1.36119l-1.47755,-0.88092z" fill="#424345" stroke-width="0.25" stroke-linecap="butt"></path><path d="M261.3677,194.63618c0,0 0.48036,0.30313 0.44059,0.5414c-0.02902,0.17391 -0.71571,1.04845 -0.88225,1.08494c-0.23307,0.05106 -0.65487,-0.26918 -0.65487,-0.26918z" fill="#424345" stroke-width="0.25" stroke-linecap="butt"></path><path d="M261.50497,195.55078l-0.17313,-0.6863" fill="none" stroke-width="0.1" stroke-linecap="round"></path><path d="M261.25673,195.8689l-0.77046,0.02872" fill="none" stroke-width="0.1" stroke-linecap="round"></path></g><path d="M240.76135,179.41528l19.17544,13.91693l-1.26512,1.74314l-19.17544,-13.91693z" fill="none" stroke="none" stroke-width="NaN" stroke-linecap="butt"></path></g></g><g><g><g stroke="#000000"><path d="M263.36177,174.31745l1.78165,-0.21542l0.27733,1.7312l-1.64179,0.51351z" fill="#424345" stroke-width="0.25" stroke-linecap="butt"></path><path d="M265.18574,174.10664c0,0 0.54624,-0.15578 0.69725,0.03276c0.11023,0.13761 0.30394,1.23251 0.22006,1.38094c-0.11739,0.20772 -0.63731,0.30846 -0.63731,0.30846z" fill="#424345" stroke-width="0.25" stroke-linecap="butt"></path><path d="M265.33194,174.28563l0.62686,0.32868" fill="none" stroke-width="0.1" stroke-linecap="round"></path><path d="M265.53788,175.6047l0.49241,-0.59327" fill="none" stroke-width="0.1" stroke-linecap="round"></path></g><path d="M240.10157,179.31067l23.15824,-5.00739l0.4552,2.1052l-23.15825,5.00739z" fill="none" stroke="none" stroke-width="NaN" stroke-linecap="butt"></path></g><g><g stroke="#000000"><path d="M217.25546,185.88196l-1.78169,0.21506l-0.27698,-1.73126l1.64189,-0.51318z" fill="#424345" stroke-width="0.25" stroke-linecap="butt"></path><path d="M215.43146,186.0924c0,0 -0.54627,0.15567 -0.69725,-0.03289c-0.1102,-0.13763 -0.30369,-1.23258 -0.21978,-1.38099c0.11743,-0.2077 0.63738,-0.30832 0.63738,-0.30832z" fill="#424345" stroke-width="0.25" stroke-linecap="butt"></path><path d="M214.65851,185.58458l0.62679,0.3288" fill="none" stroke-width="0.1" stroke-linecap="round"></path><path d="M214.58709,185.18744l0.49254,-0.59317" fill="none" stroke-width="0.1" stroke-linecap="round"></path></g><path d="M240.5167,180.8935l-23.15927,5.00266l-0.45477,-2.10529l23.15927,-5.00266z" fill="none" stroke="none" stroke-width="NaN" stroke-linecap="butt"></path></g><g><g stroke="#000000"><path d="M234.78927,156.98233l-0.19513,-1.78398l1.73425,-0.25761l0.4948,1.64753z" fill="#424345" stroke-width="0.25" stroke-linecap="butt"></path><path d="M234.59923,155.15607c0,0 -0.14957,-0.54797 0.04068,-0.69683c0.13885,-0.10866 1.23591,-0.28989 1.38337,-0.20433c0.20637,0.11974 0.30119,0.64078 0.30119,0.64078z" fill="#424345" stroke-width="0.25" stroke-linecap="butt"></path><path d="M235.11566,154.38886l-0.33579,0.62307" fill="none" stroke-width="0.1" stroke-linecap="round"></path><path d="M236.1012,154.82101l-0.58763,-0.49914" fill="none" stroke-width="0.1" stroke-linecap="round"></path></g><path d="M239.51737,180.29788l-4.74343,-23.21375l2.11024,-0.4312l4.74344,23.21375z" fill="none" stroke="none" stroke-width="NaN" stroke-linecap="butt"></path></g><g><g stroke="#000000"><path d="M245.82815,203.21731l0.19476,1.78402l-1.7343,0.25725l-0.49446,-1.64763z" fill="#424345" stroke-width="0.25" stroke-linecap="butt"></path><path d="M246.01781,205.04359c0,0 0.14944,0.54801 -0.04083,0.69683c-0.13888,0.10863 -1.23597,0.28963 -1.38341,0.20405c-0.20635,-0.11979 -0.30105,-0.64084 -0.30105,-0.64084z" fill="#424345" stroke-width="0.25" stroke-linecap="butt"></path><path d="M245.83714,205.18771l-0.33592,0.623" fill="none" stroke-width="0.1" stroke-linecap="round"></path><path d="M245.1033,205.87761l-0.58752,-0.49927" fill="none" stroke-width="0.1" stroke-linecap="round"></path></g><path d="M241.10481,179.90079l4.73869,23.21472l-2.11033,0.43077l-4.73869,-23.21472z" fill="none" stroke="none" stroke-width="NaN" stroke-linecap="butt"></path></g></g></g><path d="M219.25625,180.14357c0,-11.36458 9.21281,-20.57738 20.57738,-20.57738c11.36458,0 20.57738,9.21281 20.57738,20.57738c0,11.36458 -9.21281,20.57738 -20.57738,20.57738c-11.36458,0 -20.57738,-9.21281 -20.57738,-20.57738z" fill="none" stroke="#000000" stroke-width="0.5" stroke-linecap="butt"></path></g></g></g></svg>