<svg version="1.1" xmlns="http://www.w3.org/2000/svg" xmlns:xlink="http://www.w3.org/1999/xlink" width="57.78232" height="57.18276" viewBox="0,0,57.78232,57.18276"><defs><radialGradient cx="250.37128" cy="175.00152" r="6.68028" gradientUnits="userSpaceOnUse" id="color-1"><stop offset="0" stop-color="#1b1d21"></stop><stop offset="1" stop-color="#111519"></stop></radialGradient><radialGradient cx="250.0866" cy="173.35842" r="6.68027" gradientUnits="userSpaceOnUse" id="color-2"><stop offset="0" stop-color="#1b1d21"></stop><stop offset="1" stop-color="#111519"></stop></radialGradient><radialGradient cx="250.8649" cy="174.42869" r="6.68027" gradientUnits="userSpaceOnUse" id="color-3"><stop offset="0" stop-color="#1b1d21"></stop><stop offset="1" stop-color="#111519"></stop></radialGradient><radialGradient cx="249.47345" cy="173.50968" r="6.68026" gradientUnits="userSpaceOnUse" id="color-4"><stop offset="0" stop-color="#1b1d21"></stop><stop offset="1" stop-color="#111519"></stop></radialGradient><radialGradient cx="251.30561" cy="183.15285" r="6.68027" gradientUnits="userSpaceOnUse" id="color-5"><stop offset="0" stop-color="#1b1d21"></stop><stop offset="1" stop-color="#111519"></stop></radialGradient><radialGradient cx="252.12733" cy="181.70182" r="6.68027" gradientUnits="userSpaceOnUse" id="color-6"><stop offset="0" stop-color="#1b1d21"></stop><stop offset="1" stop-color="#111519"></stop></radialGradient><radialGradient cx="252.05051" cy="183.02293" r="6.68027" gradientUnits="userSpaceOnUse" id="color-7"><stop offset="0" stop-color="#1b1d21"></stop><stop offset="1" stop-color="#111519"></stop></radialGradient><radialGradient cx="251.5573" cy="181.43" r="6.68026" gradientUnits="userSpaceOnUse" id="color-8"><stop offset="0" stop-color="#1b1d21"></stop><stop offset="1" stop-color="#111519"></stop></radialGradient><radialGradient cx="246.10371" cy="189.85375" r="6.68027" gradientUnits="userSpaceOnUse" id="color-9"><stop offset="0" stop-color="#1b1d21"></stop><stop offset="1" stop-color="#111519"></stop></radialGradient><radialGradient cx="247.71482" cy="189.42361" r="6.68028" gradientUnits="userSpaceOnUse" id="color-10"><stop offset="0" stop-color="#1b1d21"></stop><stop offset="1" stop-color="#111519"></stop></radialGradient><radialGradient cx="246.71826" cy="190.29427" r="6.68028" gradientUnits="userSpaceOnUse" id="color-11"><stop offset="0" stop-color="#1b1d21"></stop><stop offset="1" stop-color="#111519"></stop></radialGradient><radialGradient cx="247.50945" cy="188.82639" r="6.68027" gradientUnits="userSpaceOnUse" id="color-12"><stop offset="0" stop-color="#1b1d21"></stop><stop offset="1" stop-color="#111519"></stop></radialGradient><radialGradient cx="238.24208" cy="191.42605" r="6.68027" gradientUnits="userSpaceOnUse" id="color-13"><stop offset="0" stop-color="#1b1d21"></stop><stop offset="1" stop-color="#111519"></stop></radialGradient><radialGradient cx="239.81886" cy="191.96872" r="6.68028" gradientUnits="userSpaceOnUse" id="color-14"><stop offset="0" stop-color="#1b1d21"></stop><stop offset="1" stop-color="#111519"></stop></radialGradient><radialGradient cx="238.50597" cy="192.13466" r="6.68028" gradientUnits="userSpaceOnUse" id="color-15"><stop offset="0" stop-color="#1b1d21"></stop><stop offset="1" stop-color="#111519"></stop></radialGradient><radialGradient cx="239.98193" cy="191.3586" r="6.68027" gradientUnits="userSpaceOnUse" id="color-16"><stop offset="0" stop-color="#1b1d21"></stop><stop offset="1" stop-color="#111519"></stop></radialGradient><radialGradient cx="230.89049" cy="187.59916" r="6.68027" gradientUnits="userSpaceOnUse" id="color-17"><stop offset="0" stop-color="#1b1d21"></stop><stop offset="1" stop-color="#111519"></stop></radialGradient><radialGradient cx="231.78564" cy="189.00609" r="6.68027" gradientUnits="userSpaceOnUse" id="color-18"><stop offset="0" stop-color="#1b1d21"></stop><stop offset="1" stop-color="#111519"></stop></radialGradient><radialGradient cx="230.65537" cy="188.31781" r="6.68027" gradientUnits="userSpaceOnUse" id="color-19"><stop offset="0" stop-color="#1b1d21"></stop><stop offset="1" stop-color="#111519"></stop></radialGradient><radialGradient cx="232.29334" cy="188.6305" r="6.68028" gradientUnits="userSpaceOnUse" id="color-20"><stop offset="0" stop-color="#1b1d21"></stop><stop offset="1" stop-color="#111519"></stop></radialGradient><radialGradient cx="228.07474" cy="180.60644" r="6.68027" gradientUnits="userSpaceOnUse" id="color-21"><stop offset="0" stop-color="#1b1d21"></stop><stop offset="1" stop-color="#111519"></stop></radialGradient><radialGradient cx="227.81055" cy="182.25294" r="6.68027" gradientUnits="userSpaceOnUse" id="color-22"><stop offset="0" stop-color="#1b1d21"></stop><stop offset="1" stop-color="#111519"></stop></radialGradient><radialGradient cx="227.42188" cy="180.98798" r="6.68027" gradientUnits="userSpaceOnUse" id="color-23"><stop offset="0" stop-color="#1b1d21"></stop><stop offset="1" stop-color="#111519"></stop></radialGradient><radialGradient cx="228.43958" cy="182.30895" r="6.68027" gradientUnits="userSpaceOnUse" id="color-24"><stop offset="0" stop-color="#1b1d21"></stop><stop offset="1" stop-color="#111519"></stop></radialGradient><radialGradient cx="229.93946" cy="172.61316" r="6.68026" gradientUnits="userSpaceOnUse" id="color-25"><stop offset="0" stop-color="#1b1d21"></stop><stop offset="1" stop-color="#111519"></stop></radialGradient><radialGradient cx="228.70578" cy="173.73513" r="6.68027" gradientUnits="userSpaceOnUse" id="color-26"><stop offset="0" stop-color="#1b1d21"></stop><stop offset="1" stop-color="#111519"></stop></radialGradient><radialGradient cx="229.1912" cy="172.50401" r="6.68027" gradientUnits="userSpaceOnUse" id="color-27"><stop offset="0" stop-color="#1b1d21"></stop><stop offset="1" stop-color="#111519"></stop></radialGradient><radialGradient cx="229.16246" cy="174.17133" r="6.68027" gradientUnits="userSpaceOnUse" id="color-28"><stop offset="0" stop-color="#1b1d21"></stop><stop offset="1" stop-color="#111519"></stop></radialGradient><radialGradient cx="237.0236" cy="168.19966" r="6.68026" gradientUnits="userSpaceOnUse" id="color-29"><stop offset="0" stop-color="#1b1d21"></stop><stop offset="1" stop-color="#111519"></stop></radialGradient><radialGradient cx="235.35648" cy="168.16139" r="6.68027" gradientUnits="userSpaceOnUse" id="color-30"><stop offset="0" stop-color="#1b1d21"></stop><stop offset="1" stop-color="#111519"></stop></radialGradient><radialGradient cx="236.557" cy="167.60463" r="6.68027" gradientUnits="userSpaceOnUse" id="color-31"><stop offset="0" stop-color="#1b1d21"></stop><stop offset="1" stop-color="#111519"></stop></radialGradient><radialGradient cx="235.38636" cy="168.79218" r="6.68027" gradientUnits="userSpaceOnUse" id="color-32"><stop offset="0" stop-color="#1b1d21"></stop><stop offset="1" stop-color="#111519"></stop></radialGradient><radialGradient cx="245.12418" cy="169.46699" r="6.68026" gradientUnits="userSpaceOnUse" id="color-33"><stop offset="0" stop-color="#1b1d21"></stop><stop offset="1" stop-color="#111519"></stop></radialGradient><radialGradient cx="243.78817" cy="168.46905" r="6.68027" gradientUnits="userSpaceOnUse" id="color-34"><stop offset="0" stop-color="#1b1d21"></stop><stop offset="1" stop-color="#111519"></stop></radialGradient><radialGradient cx="245.08909" cy="168.71165" r="6.68027" gradientUnits="userSpaceOnUse" id="color-35"><stop offset="0" stop-color="#1b1d21"></stop><stop offset="1" stop-color="#111519"></stop></radialGradient><radialGradient cx="243.44671" cy="169.0003" r="6.68027" gradientUnits="userSpaceOnUse" id="color-36"><stop offset="0" stop-color="#1b1d21"></stop><stop offset="1" stop-color="#111519"></stop></radialGradient><radialGradient cx="240" cy="180" r="7.16636" gradientUnits="userSpaceOnUse" id="color-37"><stop offset="0" stop-color="#353535"></stop><stop offset="1" stop-color="#2d2d2d"></stop></radialGradient><radialGradient cx="240.00001" cy="179.99999" r="7.16636" gradientUnits="userSpaceOnUse" id="color-38"><stop offset="0" stop-color="#a2a2a2"></stop><stop offset="1" stop-color="#c3c3c3"></stop></radialGradient><radialGradient cx="240.00001" cy="180" r="22.01897" gradientUnits="userSpaceOnUse" id="color-39"><stop offset="0" stop-color="#000000"></stop><stop offset="1" stop-color="#222222"></stop></radialGradient></defs><g transform="translate(-211.10884,-151.40862)"><g data-paper-data="{&quot;isPaintingLayer&quot;:true}" fill-rule="nonzero" stroke-linejoin="miter" stroke-miterlimit="10" stroke-dasharray="" stroke-dashoffset="0" style="mix-blend-mode: normal"><g><g fill="none" stroke-width="0.4" stroke-linecap="round"><g><path d="M243.39776,174.72942l16.29234,0.7818" stroke="url(#color-1)"></path><path d="M259.32464,172.03223l-16.12966,2.42592" stroke="url(#color-2)"></path><path d="M245.88665,179.31961l11.73721,-11.32647" stroke="url(#color-3)"></path><path d="M254.8403,165.8744l-9.29018,13.40685" stroke="url(#color-4)"></path></g><g><path d="M258.18822,189.45598l-12.10244,-10.93534" stroke="url(#color-5)"></path><path d="M260.11168,186.53409l-14.01066,-8.35181" stroke="url(#color-6)"></path><path d="M261.35766,182.33234l-16.25793,1.31584" stroke="url(#color-7)"></path><path d="M260.5487,178.92899l-15.68487,4.47616" stroke="url(#color-8)"></path></g><g><path d="M246.42752,199.18087l-0.67508,-16.29709" stroke="url(#color-9)"></path><path d="M249.86003,198.50644l-3.85549,-15.84888" stroke="url(#color-10)"></path><path d="M241.40267,185.7723l12.3286,10.67976" stroke="url(#color-11)"></path><path d="M255.59315,193.49054l-14.18232,-8.05684" stroke="url(#color-12)"></path></g><g><path d="M241.84211,185.44745l-8.5389,13.89742" stroke="url(#color-13)"></path><path d="M242.17758,185.40058l-5.6501,15.30124" stroke="url(#color-14)"></path><path d="M236.62074,185.41531l4.26543,15.74349" stroke="url(#color-15)"></path><path d="M244.0843,199.74138l-7.26776,-14.60243" stroke="url(#color-16)"></path></g><g><path d="M237.43152,185.16624l-15.33813,5.54914" stroke="url(#color-17)"></path><path d="M237.72309,185.33857l-13.95341,8.44715" stroke="url(#color-18)"></path><path d="M233.36767,181.88763l-6.4736,14.97143" stroke="url(#color-19)"></path><path d="M230.27867,197.7432l3.41438,-15.94972" stroke="url(#color-20)"></path></g><g><path d="M219.4262,177.09887l15.15597,6.02891" stroke="url(#color-21)"></path><path d="M218.64233,180.50811l16.04355,2.94213" stroke="url(#color-22)"></path><path d="M233.71835,177.97824l-14.77867,6.90234" stroke="url(#color-23)"></path><path d="M234.02419,178.12375l-13.13961,9.66448" stroke="url(#color-24)"></path></g><g><path d="M233.45222,178.64343l-8.08362,-14.1671" stroke="url(#color-25)"></path><path d="M233.33212,178.96014l-10.70301,-12.30841" stroke="url(#color-26)"></path><path d="M220.13363,170.25444l15.85611,3.82555" stroke="url(#color-27)"></path><path d="M219.83966,173.74022l16.29835,0.64431" stroke="url(#color-28)"></path></g><g><path d="M239.32494,159.15509l-3.91619,15.83398" stroke="url(#color-29)"></path><path d="M235.10337,175.13557l0.73752,-16.29438" stroke="url(#color-30)"></path><path d="M231.54923,159.72922l8.84418,13.70515" stroke="url(#color-31)"></path><path d="M240.29076,173.75713l-11.35833,-11.7064" stroke="url(#color-32)"></path></g><g><path d="M239.87142,174.06182l12.37255,-10.62879" stroke="url(#color-33)"></path><path d="M249.58756,161.1569l-10.04991,12.8472" stroke="url(#color-34)"></path><path d="M244.83394,175.68581l0.74228,-16.29419" stroke="url(#color-35)"></path><path d="M244.56312,175.88921l-2.46502,-16.12375" stroke="url(#color-36)"></path></g></g><path d="M232.83365,179.99999c0,-3.95787 3.20851,-7.16636 7.16637,-7.16636c3.95787,0 7.16636,3.20848 7.16636,7.16636c0,3.95787 -3.20848,7.16637 -7.16636,7.16637c-3.95787,0 -7.16637,-3.20851 -7.16637,-7.16637z" fill="url(#color-37)" stroke="url(#color-38)" stroke-width="0" stroke-linecap="butt"></path><path d="M217.98104,180c0,-12.16073 9.85823,-22.01897 22.01897,-22.01897c12.16073,0 22.01896,9.85822 22.01896,22.01897c0,12.16073 -9.85821,22.01897 -22.01896,22.01897c-12.16073,0 -22.01897,-9.85822 -22.01897,-22.01897z" fill="none" stroke="url(#color-39)" stroke-width="8" stroke-linecap="butt"></path><path d="M265.14116,180c0,13.71952 -11.25609,24.84138 -25.14116,24.84138c-13.88507,0 -25.14116,-11.12186 -25.14116,-24.84138c0,-13.71952 11.2561,-24.84138 25.14116,-24.84138c13.88507,0 25.14116,11.12186 25.14116,24.84138z" fill="none" stroke="#141413" stroke-width="7.5" stroke-linecap="butt"></path></g></g></g></svg>